<svg xmlns="http://www.w3.org/2000/svg" viewBox="0 0 128.93 108.33"><defs><style>.cls-1{fill:#fff;}.cls-1,.cls-2,.cls-3{fill-rule:evenodd;}.cls-2{fill:#e20613;}.cls-3{fill:#1d1d1b;}</style></defs><title>SUSHIIN </title><g id="Capa_2" data-name="Capa 2"><g id="Capa_1-2" data-name="Capa 1"><path class="cls-1" d="M64.47,100.6a46.43,46.43,0,1,1,46.42-46.43A46.43,46.43,0,0,1,64.47,100.6Z"/><path class="cls-2" d="M64.47,0a54.17,54.17,0,1,0,54.16,54.17A54.18,54.18,0,0,0,64.47,0Zm0,100.6a46.43,46.43,0,1,1,46.42-46.43A46.43,46.43,0,0,1,64.47,100.6Z"/><path class="cls-3" d="M125.55,6.05a3.43,3.43,0,0,0-1.7.14L.76,48.79a1.21,1.21,0,0,0-.7.58.65.65,0,0,0,0,.5l.2.46a.75.75,0,0,0,.59.42,1.44,1.44,0,0,0,.58,0L127,15.2a2.78,2.78,0,0,0,1.7-1.28,1.68,1.68,0,0,0,.16-1.3l-1.57-5.19A2.11,2.11,0,0,0,125.55,6.05Z"/><path class="cls-3" d="M125.55,103.2a3.32,3.32,0,0,1-1.7-.15L.76,60.46a1.19,1.19,0,0,1-.7-.59.64.64,0,0,1,0-.5l.2-.46a.77.77,0,0,1,.59-.42,1.29,1.29,0,0,1,.58,0L127,94.05a2.78,2.78,0,0,1,1.7,1.28,1.67,1.67,0,0,1,.16,1.3l-1.57,5.18A2.1,2.1,0,0,1,125.55,103.2Z"/></g></g></svg>