<svg xmlns="http://www.w3.org/2000/svg" viewBox="0 0 371.06 166.2"><defs><style>.cls-1{fill:#3d2116;}.cls-2{fill:#fff;}</style></defs><g id="Capa_2" data-name="Capa 2"><g id="Capa_1-2" data-name="Capa 1"><g id="Capa_1_copia" data-name="Capa 1 copia"><path class="cls-1" d="M371.06,21.49V144.71a21.49,21.49,0,0,0-21.5,21.48H21.48A21.5,21.5,0,0,0,0,144.71V21.49A21.5,21.5,0,0,0,21.48,0H349.56a21.49,21.49,0,0,0,21.49,21.49Z"/><path class="cls-1" d="M33.75,153.88a23,23,0,0,0-21.44-21.43V33.74A23,23,0,0,0,33.75,12.32H337.32a23,23,0,0,0,21.43,21.42v98.71a23,23,0,0,0-21.43,21.43Z"/><path class="cls-2" d="M336,13.82a24.52,24.52,0,0,0,21.3,21.29v96A24.51,24.51,0,0,0,336,152.38H35.12a24.54,24.54,0,0,0-21.31-21.29v-96A24.54,24.54,0,0,0,35.12,13.82H336m2.82-3H32.3A21.48,21.48,0,0,1,10.81,32.29h0V133.9A21.5,21.5,0,0,1,32.3,155.38H338.77a21.5,21.5,0,0,1,21.48-21.48V32.29a21.48,21.48,0,0,1-21.48-21.47Z"/></g></g></g></svg>