<?xml version="1.0" encoding="utf-8"?>
<!-- Generator: Adobe Illustrator 23.0.2, SVG Export Plug-In . SVG Version: 6.00 Build 0)  -->
<svg version="1.1" id="Capa_1" xmlns="http://www.w3.org/2000/svg" xmlns:xlink="http://www.w3.org/1999/xlink" x="0px" y="0px"
	 viewBox="0 0 311.96 311.96" style="enable-background:new 0 0 311.96 311.96;" xml:space="preserve">
<style type="text/css">
	.st0{fill-rule:evenodd;clip-rule:evenodd;fill:#12100D;}
	.st1{fill-rule:evenodd;clip-rule:evenodd;fill:#FFFFFF;}
	.st2{fill-rule:evenodd;clip-rule:evenodd;fill:#E30613;}
	.st3{fill-rule:evenodd;clip-rule:evenodd;fill:#F08372;}
</style>
<ellipse transform="matrix(0.2582 -0.9661 0.9661 0.2582 -34.9902 266.3917)" class="st0" cx="155.98" cy="155.98" rx="155.98" ry="155.98"/>
<path class="st1" d="M291.05,155.98c0,74.6-60.47,135.07-135.07,135.07c-74.6,0-135.07-60.47-135.07-135.07
	c0-74.6,60.47-135.07,135.07-135.07C230.58,20.91,291.05,81.39,291.05,155.98z"/>
<path class="st2" d="M279.34,155.98c0,68.13-55.23,123.36-123.36,123.36c-68.13,0-123.36-55.23-123.36-123.36
	c0-68.13,55.23-123.36,123.36-123.36C224.11,32.62,279.34,87.85,279.34,155.98z"/>
<path class="st0" d="M188.96,143.78l-58.48-68.63c-0.41-0.48-0.99-0.77-1.54-0.77c-0.33,0-0.63,0.11-0.85,0.31l-2.76,2.54
	c-0.26,0.24-0.33,0.56-0.33,0.79c-0.01,0.46,0.18,0.93,0.54,1.31l62.46,65.28c0.15,0.15,0.34,0.24,0.51,0.24
	c0.06,0,0.15-0.01,0.23-0.07l0.28-0.21c0.1-0.07,0.13-0.18,0.14-0.26C189.17,144.15,189.09,143.94,188.96,143.78z"/>
<path class="st1" d="M168.68,154.96c0,0,0.79-0.29,2.48-1.86c0.79-0.74,2.04-2.67,2.75-3.15c14.04-9.42,19.36-17.53,19.36-26.81
	c0-8.76-4.94-13.36-11.37-13.36c-7.79,0-11.53,7.46-11.53,7.46s-5.03-6.68-11.65-6.68c-6.23,0-10.32,6.19-10.32,12.91
	c0,7.33,5.07,13.57,12.78,18.43c3.2,2.02,4.74,3.85,5.08,5.91C167.04,152.38,168.68,154.96,168.68,154.96z"/>
<path class="st3" d="M154.98,116.63c1.86-1.87,5.73-4.1,8.09-4.66c0.24-0.06,0.27-0.38,0.05-0.48c-1.46-0.63-3-0.93-4.38-0.93
	c-6.23,0-10.32,6.19-10.32,12.91c0,1.51,0.21,3.27,0.75,4.81C150.05,130.8,148.17,123.48,154.98,116.63z"/>
<path class="st3" d="M159.52,123.7c-6.09,6.35-4.6,12.31-3.7,13.97c0.92,1.7,5.88,4.53,5.88,4.53s-2.2-17.16,15.78-22.83
	c5.99-1.89,10.92-5.31,10.62-7.84c-2.06-1.36-3.83-1.9-6.34-1.9c-6.15,0-9.91,4.59-11.53,7.46
	C168.61,119.96,164.12,118.9,159.52,123.7z"/>
<path class="st3" d="M168.88,115.55c-0.89-0.85-1.88-1.72-3.04-2.55c-1.06-0.76-2.16-0.51-3.38-0.02c-1.77,0.71-4.39,2.33-6.04,3.82
	c-5.5,4.93-6.97,13.47-4.84,16.38c1.54,2.11,2.18,2.87,3.49,4.03c-0.9-2.37-2.22-7.15,2.38-12.97c3.7-4.68,10.01-5.63,12.04-7.47
	C169.78,116.51,169.17,115.82,168.88,115.55z"/>
<path class="st3" d="M181.7,126.17c4.79-1.64,7.61-2.91,10-5.44c0.37-0.39,1.26-1.28,1-2.39c-0.57-2.43-1.64-4.57-3.49-5.94
	c-0.17,2.25-4.88,6.3-10.84,8.44c-12.26,4.39-17.64,14.47-15.81,22c2.94,1.97,3.54,5.44,3.72,3.89
	C166.75,141.66,167.32,131.1,181.7,126.17z"/>
<path class="st3" d="M181.75,136.16c-8.26,3.41-7.89,8.97-7.83,13.79c5.25-3.66,13.03-7.37,16.95-16.83
	c0.06-0.14-0.12-0.29-0.24-0.19C188.44,134.61,183.69,135.36,181.75,136.16z"/>
<path class="st3" d="M172.44,151.59c2.05-2.78-3.3-12.19,9.44-16.36c4.2-1.37,8.63-1.89,10.04-4.42c0.95-1.71,1.55-4.74,1.47-7.66
	c-0.01-0.52-0.11-2.96-0.78-1.87c-1.02,1.64-4.9,5.24-9.69,6.46c-15.17,3.85-15.62,15.63-16.15,19.62
	c-0.53,4.04,1.91,7.61,1.91,7.61S170.42,154.34,172.44,151.59z"/>
<path class="st0" d="M92.15,97.33c0.46,0,0.93,0.13,1.37,0.37l94.41,53.27c0.24,0.14,0.42,0.36,0.48,0.59
	c0.03,0.11,0.04,0.26-0.06,0.41l-0.23,0.35c-0.11,0.16-0.3,0.25-0.55,0.25c-0.16,0-0.32-0.04-0.47-0.11L89.6,104.6
	c-0.58-0.28-1.02-0.76-1.2-1.3c-0.13-0.39-0.11-0.77,0.06-1.09l2.06-4.01C90.8,97.66,91.41,97.33,92.15,97.33z"/>
<path class="st0" d="M70.33,200c-0.71-0.35-1.14-0.62-1.27-0.83l-0.23-1.09l-0.03-0.21c0.02-0.4,0.5-0.89,1.46-1.48l1.09-0.68
	c0.05-0.04,0.34-0.14,0.86-0.31l2.42-0.99c0.59-0.24,1.31-0.51,2.16-0.81l0.83-0.29l0.39-0.08l0.26,0.08
	c0.14,0.07,0.22,0.26,0.23,0.57c-0.02,0.35-0.11,0.57-0.29,0.68l-0.68,0.31c-0.38,0.12-0.68,0.23-0.91,0.34l-0.49,0.49l0.42,0.26
	c0.31,0,0.62-0.1,0.94-0.31c0.61-0.43,1.05-0.73,1.33-0.88c0.28-0.16,0.49-0.32,0.62-0.49c0.1-0.12,0.17-0.28,0.21-0.47l0.1-0.73
	c0-0.07,0.03-0.14,0.1-0.21l0.31-0.23l1.22-0.6l0.13-0.57l0.03-0.42c0.02-0.73-0.55-1.82-1.72-3.28l-1.35-1.69
	c-0.54-0.62-0.87-1.04-0.99-1.25l-0.44-0.73l-0.6-0.68c-0.45-0.43-0.79-0.8-1.01-1.09c-0.5-0.57-0.92-1.17-1.25-1.79l-0.65-1.17
	l-0.42-0.57c-0.71-1.01-1.04-2.04-0.99-3.12c0-1.42,0.11-2.43,0.34-3.02l0.31-0.81c0.17-0.42,0.3-0.68,0.39-0.78l0.44-0.41
	l0.68-1.09c0.47-0.81,1.37-1.7,2.7-2.65l0.99-0.68c0.61-0.42,1.2-0.79,1.77-1.12c2.24-1.25,3.86-2.01,4.89-2.29l3.33-0.86
	c0.92-0.24,1.51-0.36,1.77-0.36c0.88,0.07,1.32,0.55,1.3,1.43c0,0.12-0.05,0.44-0.16,0.96l-0.16,0.81c-0.07,0.21-0.21,0.5-0.42,0.88
	l-0.23,0.34c-0.35,0.4-0.97,0.85-1.87,1.35l-1.3,0.81l-1.3,0.78c-2.01,1.16-3.24,1.74-3.69,1.74c-0.31,0.03-0.56-0.14-0.75-0.52
	l-0.08-0.31c0-0.28,0.14-0.54,0.42-0.78c0.17-0.14,0.41-0.29,0.7-0.47c0.49-0.28,0.84-0.5,1.07-0.68l0.55-0.52
	c0.19-0.21,0.29-0.4,0.29-0.57l-0.26-0.29l-0.6,0.44c-0.09,0.09-0.23,0.17-0.44,0.26c-0.76,0.35-1.43,0.78-2,1.3l-1.01,0.91
	l-0.91,0.68l-0.68,0.83l-0.57,0.73c-0.36,0.45-0.54,0.88-0.52,1.3c0,0.35,0.14,0.91,0.42,1.69c0.31,0.95,0.53,1.49,0.65,1.61
	l1.04,1.33c0.16,0.21,0.42,0.62,0.81,1.25c0.49,0.81,0.85,1.38,1.09,1.69l2.13,2.78l1.51,2.26c0.57,0.88,0.92,1.62,1.04,2.21
	c0.12,0.59,0.18,1.09,0.18,1.51c0,0.31-0.03,0.52-0.08,0.62c-0.14,0.28-0.2,0.48-0.18,0.62l0.13,0.16l0.75,0.26
	c0.17,0.07,0.27,0.31,0.29,0.73c-0.02,0.29-0.07,0.55-0.16,0.78c-0.07,0.1-0.15,0.18-0.23,0.23l-2.18,1.01
	c-0.19,0.1-0.55,0.42-1.09,0.96c-0.54,0.54-1.05,0.97-1.53,1.3c-0.36,0.26-0.8,0.53-1.3,0.81c-0.61,0.35-1.01,0.59-1.2,0.73
	c-0.43,0.36-0.71,0.54-0.83,0.52l-0.78,0.1l-0.65,0.55l-0.78,0.34l-1.01,0.44c-1.32,0.59-2.42,0.88-3.3,0.86
	C71.33,200.37,70.83,200.24,70.33,200z"/>
<path class="st0" d="M114.96,191.05l-0.44,0.31l-0.94,0.7c-0.23,0.19-0.58,0.4-1.07,0.62c-0.83,0.42-1.35,0.69-1.56,0.83
	c-0.55,0.36-1.19,0.55-1.9,0.57c-1.06-0.02-1.83-0.19-2.31-0.52c-0.83-0.57-1.33-1.19-1.51-1.85l-0.26-1.04l-0.31-0.36l-0.26,0.18
	l-0.31,0.57l-0.34,0.44l-0.73,0.91l-0.36,0.36c-0.14,0.14-0.31,0.36-0.52,0.68c-0.69,0.99-1.34,1.75-1.95,2.29
	c-1.25,1.13-2.06,1.67-2.44,1.64L97,197.27c-1.02-0.21-1.7-0.53-2.03-0.96l-0.29-0.47l-0.96-1.82c-0.05-0.14-0.14-0.72-0.26-1.74
	c-0.1-0.66-0.15-1.26-0.13-1.79l-0.05-0.42l-0.23-0.29l-0.26,0.18l-0.44,0.29l-0.62,0.52l-0.6,0.44l-0.31,0.18l-0.36-0.47
	l-0.29-0.88l-0.47-0.6c-0.12-0.1-0.17-0.21-0.16-0.31l0.05-0.18l0.31-0.29l0.31-0.29l0.6-0.47c1.01-0.74,1.64-1.39,1.9-1.95
	l0.31-0.73l0.75-1.01l0.47-0.83l0.99-1.12l0.6-1.01c0.21-0.38,0.46-0.73,0.75-1.04c0.88-1.02,1.85-1.54,2.91-1.56
	c0.81-0.04,1.22,0.43,1.22,1.4c0.05,0.55-0.12,1.09-0.52,1.61l-0.44,0.62c-0.05,0.05-0.12,0.23-0.21,0.55l-0.23,0.68
	c-0.35,0.95-0.58,1.75-0.69,2.38c-0.11,0.63-0.19,0.99-0.22,1.08l-0.18,0.55c-0.07,0.16-0.09,0.7-0.08,1.64l-0.1,1.4l-0.1,1.46
	l0.05,0.39c0.09,0.43,0.27,0.62,0.55,0.57c0.14,0,0.31-0.08,0.52-0.23l0.55-0.42l0.65-0.39l0.39-0.65c0.12-0.21,0.36-0.47,0.71-0.78
	c0.36-0.31,0.58-0.54,0.69-0.68l0.42-0.55l0.94-0.78l0.55-0.99l0.49-0.68l1.27-1.85c0.45-0.62,1.01-0.94,1.66-0.94
	c0.38,0.02,0.75,0.1,1.09,0.26l0.23,0.16c0.1,0.14,0.17,0.3,0.21,0.49l0.13,1.43c0.23,2.17,1,3.26,2.31,3.27
	c0.75-0.02,1.45-0.35,2.11-0.99c0.31-0.29,0.55-0.5,0.73-0.62l0.23-0.1l0.16,0.13l0.21,1.56l0.29,0.94l0.05,0.23L114.96,191.05z"/>
<path class="st0" d="M119.07,198.77l-0.26-0.99l-0.42-0.96l-0.13-0.73l-0.13-1.07l-0.05-0.78l-0.16-0.6l-0.08-0.44
	c0.04-0.45,0.28-0.91,0.73-1.38c0.45-0.47,0.9-0.71,1.35-0.73c0.14,0,0.3,0.11,0.49,0.34l0.55,0.44l0.34-0.42
	c0.03-0.21,0.07-0.51,0.1-0.91l0.08-0.7l0.18-1.14l0.16-2.47l0.05-0.36l-0.05-0.21c-0.07-0.07-0.19-0.15-0.36-0.23l-0.39-0.1
	c-0.16,0.02-0.3,0.09-0.44,0.21l-0.36,0.36l-2.18,1.95l-0.86,1.12c-0.17,0.19-0.37,0.34-0.6,0.44l-0.73,0.47l-0.49,0.83l-0.6,0.47
	l-0.39,0.36l-0.34,0.23c-0.36,0-0.57-0.47-0.62-1.4l-0.08-0.86c-0.03-0.49,0.17-0.92,0.62-1.3c0.3-0.29,0.8-0.88,1.51-1.77
	c0.49-0.62,0.92-1.07,1.3-1.35l0.91-0.65c0.09-0.1,0.17-0.24,0.26-0.42l0.21-0.57c0.07-0.3,0.6-0.75,1.59-1.35
	c0.47-0.29,0.79-0.56,0.96-0.81l0.7-0.99c0.23-0.35,0.56-0.72,1.01-1.12l1.25-1.12c0.21-0.12,0.55-0.19,1.04-0.21
	c0.69,0,1.3,0.3,1.81,0.91c0.51,0.61,0.78,1.23,0.79,1.87c0,0.16-0.02,0.35-0.05,0.57l-0.18,0.73l-0.23,0.6l0.08,0.42
	c0.09,0.29,0.05,0.86-0.1,1.69c-0.24,1.26-0.39,1.99-0.44,2.18l-0.26,0.91l-0.16,0.57l-0.39,1.59c-0.26,1.11-0.56,1.98-0.91,2.6
	c-0.07,0.14-0.1,0.26-0.1,0.36l0.18,0.23l0.26-0.08c0.17-0.12,0.34-0.27,0.49-0.44l0.62-0.75c0.14-0.17,0.47-0.49,0.99-0.96
	c0.57-0.52,1.03-0.96,1.38-1.33l0.88-0.94l0.49-0.44l0.29-0.16l0.21,0.18c0.03,0.1,0.06,0.23,0.08,0.36c0,0.52,0.07,0.89,0.21,1.12
	l0.42,1.04l-0.44,0.39c-0.14,0.1-0.34,0.3-0.6,0.6l-0.73,0.81l-0.34,0.36c-0.19,0.21-0.4,0.36-0.62,0.47l-0.62,0.34l-0.96,1.01
	l-1.35,1.09c-0.76,0.64-1.2,0.99-1.3,1.04l-1.27,0.65l-0.29,0.47c-0.1,0.17-0.31,0.33-0.62,0.47l-0.81,0.39l-0.78,0.39
	c-0.17,0.07-0.29,0.1-0.36,0.08C119.43,199.27,119.12,199.1,119.07,198.77z"/>
<path class="st0" d="M151.62,158.69c0,0,0.01,0.71,0.03,2.13c0,0.54-0.06,0.99-0.18,1.35l-0.52,1.64l-0.39,1.48
	c-0.19,0.62-0.46,1.31-0.81,2.05l-0.96,2.05l-0.36,0.55l-0.49,1.07l-0.7,1.12c-0.17,0.31-0.28,0.48-0.31,0.49l-0.94,0.86l-0.16,0.94
	l-0.57,0.81l-0.52,0.81l-0.49,0.55l-0.96,1.61l-0.99,1.14l-2.34,2.83c-0.14,0.17-0.25,0.28-0.34,0.31l-0.55,0.29l-0.96,1.56
	l-1.46,1.56l-0.26,1.72l-0.08,0.42l-0.23,1.59l-0.26,1.04c-0.03,0.1-0.04,0.23-0.03,0.36l0.05,0.62l0.03,0.29l0.29,0.23
	c0.54-0.1,1.24-0.94,2.11-2.52c0.92-1.68,1.46-2.6,1.64-2.75l0.6-0.62l0.23-1.07l0.31-0.47l0.94-1.56c0.19-0.33,0.56-0.62,1.12-0.86
	l0.68-0.23l0.55-0.08c0.76,0.02,1.15,0.37,1.17,1.07l0.05,0.78l0.18,0.65v0.7l0.57,1.4l0.52,1.22c0.29,0.78,1.05,1.16,2.26,1.14
	c0.31,0,0.54-0.04,0.68-0.13l0.52-0.36l0.39-0.26l0.21-0.13l0.36,0.42l0.23,1.09l0.21,0.7l0.08,0.34l-0.05,0.21l-0.16,0.18
	l-0.52,0.31l-0.42,0.26l-0.68,0.34c-0.12,0.05-0.37,0.21-0.75,0.47c-0.52,0.35-1.04,0.62-1.56,0.83c-0.24,0.12-0.44,0.17-0.6,0.16
	l-0.47-0.1l-0.49-0.1l-0.86,0.05c-0.49,0.02-0.99-0.38-1.51-1.2l-1.22-2.11c-0.09-0.14-0.19-0.27-0.31-0.39
	c-0.05-0.04-0.11-0.06-0.18-0.08l-0.18,0.05c-0.12,0.09-0.23,0.2-0.31,0.34l-0.81,1.14l-0.62,0.65l-0.42,0.81
	c-0.26,0.52-0.61,1.04-1.04,1.56l-0.57,0.68l-1.04,1.35c-0.75,0.94-1.56,1.4-2.44,1.38c-1.33,0.05-2.11-0.62-2.34-2
	c-0.17-0.69-0.26-1.57-0.26-2.63c0-0.64,0.03-1.19,0.08-1.64l0.05-0.65l-0.1-0.49l-0.55,0.36l-0.55,0.57l-0.34,0.23l-0.34-0.31
	l-0.52-0.99l-0.29-0.57l-0.18-0.49l0.16-0.16l0.73-0.62c0.61-0.47,0.92-0.81,0.94-1.01l0.05-0.34l0.42-0.16
	c0.16-0.05,0.36-0.24,0.62-0.57l0.34-0.44c0.12-0.14,0.2-0.29,0.23-0.44l0.29-1.07l0.31-0.94l0.08-0.6
	c0.09-0.69,0.22-1.28,0.39-1.77l1.09-2.81l0.36-1.38c0.05-0.24,0.25-0.68,0.6-1.32l1.43-2.89l0.96-1.87
	c0.52-0.99,0.94-1.7,1.25-2.13l0.96-1.33l0.68-1.01l1.51-1.74l1.07-1.4c0.87-1.09,1.96-2.1,3.28-3.04c1.02-0.74,1.94-1.12,2.76-1.12
	C150.98,158.67,151.62,158.69,151.62,158.69L151.62,158.69z M138.7,180.03L138.7,180.03l0.65-0.96l0.39-0.6l0.23-0.42l3.25-4.08
	l0.6-1.2l1.12-1.69l2.03-3.85l0.86-1.69l0.55-1.53c0.05-0.17,0.09-0.35,0.1-0.52c0-0.3-0.1-0.44-0.29-0.44l-0.47,0.21
	c-0.23,0.16-0.41,0.3-0.55,0.44l-0.68,0.81l-1.17,1.32l-0.73,1.38l-0.47,0.65l-0.36,0.7c-0.33,0.66-0.64,1.15-0.94,1.48l-0.57,0.6
	l-0.91,2.03l-0.6,0.86l-0.36,0.73l-1.33,2.88l-0.36,1.2c-0.12,0.4-0.31,0.82-0.57,1.27c-0.09,0.16-0.13,0.29-0.13,0.39l0.08,0.21
	c0.05,0.09,0.13,0.12,0.23,0.1L138.7,180.03z"/>
<path class="st0" d="M157.61,183.22c0.65,0.29,1.02,0.77,1.11,1.44l0.16,1.22l0.31,1.69v1.17l0.47,0.91l0.44,0.88
	c0.24,0.4,0.65,0.55,1.22,0.47c0.88-0.02,1.85-0.57,2.88-1.66l0.78-0.83c0.1-0.12,0.24-0.23,0.42-0.34l0.26-0.1l0.21,0.26l0.16,0.62
	l0.21,1.09l0.08,0.49c0.04,0.29-0.32,0.74-1.07,1.32l-1.87,1.51l-1.17,0.7l-1.35,0.91c-0.54,0.31-1.09,0.46-1.66,0.44
	c-0.81,0.02-1.54-0.3-2.18-0.96c-0.49-0.42-0.83-0.87-1.04-1.35l-0.81-1.69l-0.29-0.47c-0.1-0.16-0.23-0.47-0.39-0.94
	c-0.1-0.28-0.23-0.52-0.39-0.73l-0.39-0.23c-0.1,0.02-0.23,0.11-0.39,0.29l-0.6,0.57l-0.91,0.86c-0.35,0.38-0.62,0.57-0.83,0.57
	l-0.13-0.05c-0.35-0.26-0.56-0.68-0.65-1.25c-0.09-0.42-0.16-0.7-0.21-0.86l-0.08-0.29l0.18-0.29l0.65-0.6l0.81-0.81l0.62-0.36
	l0.29-0.83l0.65-0.6l0.21-0.29l1.48-1.53c0.5-0.52,0.98-0.79,1.43-0.81C156.49,182.79,156.96,182.93,157.61,183.22L157.61,183.22z
	 M155.62,174.34L155.62,174.34l-0.26-1.25c0-0.42,0.41-1.01,1.22-1.77l0.86-0.83l0.99-0.75l0.96-1.01c0.4-0.35,0.89-0.52,1.48-0.52
	c0.73,0.02,1.13,0.44,1.2,1.27c0,0.4-0.09,0.81-0.26,1.22c-0.33,0.73-0.49,1.11-0.47,1.14l-0.26,1.07
	c-0.26,1.16-1.31,1.92-3.15,2.29l-1.35,0.23C155.97,175.45,155.65,175.08,155.62,174.34z"/>
<path class="st0" d="M192.06,160.93c-0.02,0.61-0.09,1.37-0.21,2.29c-0.07,0.47-0.19,1.11-0.36,1.92c-0.38,1.73-0.71,3.16-0.99,4.29
	c-0.28,1.01-0.42,1.6-0.44,1.79l-0.34,1.85l-0.29,1.35l-0.26,1.79l-0.31,1.33l-0.16,1.14l-0.18,0.6l-0.08,0.96l-0.21,0.75
	c-0.07,0.28-0.11,0.59-0.13,0.94l-0.03,0.62c-0.03,0.47-0.08,0.89-0.13,1.27l-0.23,1.4v1.38l-0.36,2.37
	c-0.09,0.55-0.12,1.3-0.1,2.24c0,1.28,0.02,1.98,0.05,2.1c0.26,1.04,0.39,1.65,0.39,1.82c0.07,0.29-0.34,0.77-1.22,1.43
	c-0.78,0.57-1.33,0.85-1.66,0.83c-0.42,0-0.79-0.25-1.12-0.75c-0.28-0.42-0.42-0.86-0.42-1.33l-0.05-1.25l-0.18-1.56
	c-0.02-0.36-0.01-0.7,0.03-1.01l0.05-1.38c0-0.61,0.02-1,0.05-1.17l0.18-1.64v-1.3c0-0.31,0.09-1.26,0.26-2.83l0.13-1.2l0.13-0.96
	l0.16-1.3c0.07-1.01,0.12-1.54,0.16-1.61l0.26-1.33l0.05-0.86l-0.08-0.83l-0.1-0.96l-0.29-0.1l-0.29-0.68l-0.1-0.57l0.08-0.57
	c0.17-0.73,0.27-1.26,0.29-1.59l0.08-0.88c0.05-0.62,0.21-1.26,0.47-1.9l0.49-1.22l0.55-1.87c0.78-2.79,1.87-4.17,3.28-4.13
	l0.49,0.1l0.44-0.39c0.09-0.09,0.28-0.17,0.57-0.26l0.83-0.26C191.74,159.83,192.03,160.2,192.06,160.93z"/>
<path class="st0" d="M204.15,180.15c0.42,0.53,0.61,1.1,0.6,1.7c0.02,0.8-0.16,1.66-0.52,2.6l-0.39,0.83
	c-0.14,0.26-0.2,0.48-0.18,0.65v0.47l-0.21,0.62l-0.57,1.69l-0.83,1.66c-0.03,0.07-0.06,0.28-0.08,0.64
	c-0.02,0.36-0.1,0.65-0.26,0.9l-0.13,0.31l0.16,0.13l0.13-0.05l0.21-0.21l0.75-1.04l0.57-0.78c0.28-0.36,0.56-0.64,0.86-0.83
	l0.42-0.26l1.04-1.22l0.78-0.73l1.61-1.79c0.9-0.92,2-1.39,3.3-1.43c1.18-0.03,2.05,0.66,2.6,2.08c0.09,0.21,0.28,0.75,0.57,1.64
	c0.16,0.45,0.31,0.81,0.47,1.07l0.34,0.49l0.31,0.49l0.36,0.39l0.29-0.16l0.47-0.42c0.16-0.16,0.3-0.27,0.42-0.34l0.49-0.34
	c0.23-0.16,0.49-0.38,0.81-0.68c0.17-0.16,0.32-0.24,0.44-0.26c0.05,0,0.1,0.01,0.13,0.03l0.21,0.18c0.19,0.24,0.32,0.55,0.39,0.91
	l0.16,0.78c0.05,0.23,0.09,0.42,0.1,0.57c0,0.14-0.09,0.28-0.26,0.42l-0.65,0.49l-0.75,0.73l-0.96,0.81
	c-1.33,1.14-2.24,1.71-2.7,1.69c-0.26,0.02-0.47-0.03-0.62-0.13c-0.38-0.17-0.79-0.48-1.22-0.91l-0.6-0.62
	c-0.31-0.31-0.49-0.68-0.55-1.09l-0.18-0.86l-0.94-0.81l-0.78-0.7c-0.17-0.14-0.38-0.21-0.62-0.21l-0.47,0.08
	c-0.31,0.1-0.52,0.21-0.62,0.31l-2.05,1.9l-1.14,0.83c-0.17,0.17-0.37,0.42-0.6,0.75c-0.54,0.78-0.94,1.26-1.2,1.46l-1.64,1.2
	l-0.31,0.55c-0.23,0.42-0.68,0.95-1.35,1.61c-0.4,0.43-0.86,0.66-1.38,0.68c-1.18-0.05-1.79-0.62-1.82-1.69
	c0-0.43,0.07-0.93,0.21-1.48l0.36-1.17l0.39-0.96l0.94-3.28c0.1-0.26,0.16-0.44,0.18-0.55l0.03-0.57c0-0.31,0.07-0.68,0.21-1.12
	l0.16-0.44l0.05-0.18l-0.13-0.26l-0.16-0.16l-0.73,0.62l-1.27,1.35l-0.83,1.14l-0.75,0.83c-0.16,0.17-0.31,0.31-0.47,0.42
	l-0.18,0.05l-0.16-0.05l-0.13-0.16l-0.44-0.86c-0.07-0.12-0.19-0.29-0.35-0.51c-0.17-0.22-0.25-0.4-0.25-0.56l0.1-0.23l0.21-0.26
	l0.68-0.65c0.22-0.23,0.55-0.66,0.96-1.3c0.35-0.54,0.59-0.88,0.73-1.04l0.99-1.07l1.25-1.69c0.21-0.28,0.6-0.67,1.17-1.17
	l0.52-0.49c1.2-1.26,2.11-1.88,2.76-1.85C203.21,179.34,203.73,179.62,204.15,180.15z"/>
<path class="st0" d="M228.79,180.15c0.42,0.53,0.62,1.1,0.6,1.7c0.02,0.8-0.16,1.66-0.52,2.6l-0.39,0.83
	c-0.14,0.26-0.2,0.48-0.18,0.65v0.47l-0.21,0.62l-0.57,1.69l-0.83,1.66c-0.04,0.07-0.06,0.28-0.08,0.64
	c-0.02,0.36-0.1,0.65-0.26,0.9l-0.13,0.31l0.16,0.13l0.13-0.05l0.21-0.21l0.75-1.04l0.57-0.78c0.28-0.36,0.56-0.64,0.86-0.83
	l0.42-0.26l1.04-1.22l0.78-0.73l1.61-1.79c0.9-0.92,2-1.39,3.3-1.43c1.18-0.03,2.04,0.66,2.6,2.08c0.09,0.21,0.28,0.75,0.57,1.64
	c0.16,0.45,0.31,0.81,0.47,1.07l0.34,0.49l0.31,0.49l0.36,0.39l0.29-0.16l0.47-0.42c0.16-0.16,0.3-0.27,0.42-0.34l0.49-0.34
	c0.23-0.16,0.49-0.38,0.81-0.68c0.17-0.16,0.32-0.24,0.44-0.26c0.05,0,0.1,0.01,0.13,0.03l0.21,0.18c0.19,0.24,0.32,0.55,0.39,0.91
	l0.16,0.78c0.05,0.23,0.09,0.42,0.1,0.57c0,0.14-0.09,0.28-0.26,0.42l-0.65,0.49l-0.75,0.73l-0.96,0.81
	c-1.33,1.14-2.24,1.71-2.7,1.69c-0.26,0.02-0.47-0.03-0.62-0.13c-0.38-0.17-0.79-0.48-1.22-0.91l-0.6-0.62
	c-0.31-0.31-0.49-0.68-0.55-1.09l-0.18-0.86l-0.94-0.81l-0.78-0.7c-0.17-0.14-0.38-0.21-0.62-0.21l-0.47,0.08
	c-0.31,0.1-0.52,0.21-0.62,0.31l-2.05,1.9l-1.14,0.83c-0.17,0.17-0.37,0.42-0.6,0.75c-0.54,0.78-0.94,1.26-1.2,1.46l-1.64,1.2
	l-0.31,0.55c-0.23,0.42-0.68,0.95-1.35,1.61c-0.4,0.43-0.86,0.66-1.38,0.68c-1.18-0.05-1.79-0.62-1.82-1.69
	c0-0.43,0.07-0.93,0.21-1.48l0.36-1.17l0.39-0.96l0.94-3.28c0.1-0.26,0.17-0.44,0.18-0.55l0.03-0.57c0-0.31,0.07-0.68,0.21-1.12
	l0.16-0.44l0.05-0.18l-0.13-0.26l-0.16-0.16l-0.73,0.62l-1.27,1.35l-0.83,1.14l-0.75,0.83c-0.16,0.17-0.31,0.31-0.47,0.42
	l-0.18,0.05l-0.16-0.05l-0.13-0.16l-0.44-0.86c-0.07-0.12-0.19-0.29-0.35-0.51c-0.16-0.22-0.25-0.4-0.25-0.56l0.1-0.23l0.21-0.26
	l0.68-0.65c0.23-0.23,0.55-0.66,0.96-1.3c0.35-0.54,0.59-0.88,0.73-1.04l0.99-1.07l1.25-1.69c0.21-0.28,0.6-0.67,1.17-1.17
	l0.52-0.49c1.19-1.26,2.11-1.88,2.75-1.85C227.85,179.34,228.38,179.62,228.79,180.15z"/>
<path class="st1" d="M96.43,217.51c0.39,0.23,1.18,0.45,1.97,0.45c1.91,0,2.81-1.06,2.81-2.32c0-1.05-0.58-1.74-1.8-2.23
	c-0.9-0.37-1.29-0.58-1.29-1.05c0-0.39,0.33-0.72,1.01-0.72c0.68,0,1.18,0.21,1.45,0.35l0.35-1.36c-0.41-0.2-0.99-0.38-1.77-0.38
	c-1.64,0-2.63,0.98-2.63,2.25c0,1.09,0.75,1.77,1.91,2.21c0.84,0.32,1.17,0.59,1.17,1.05c0,0.49-0.38,0.81-1.1,0.81
	c-0.67,0-1.32-0.23-1.74-0.47L96.43,217.51L96.43,217.51z M106.92,215.94l0.54,1.92h1.69l-2.16-7.47h-2.06l-2.12,7.47h1.63l0.5-1.92
	H106.92L106.92,215.94z M105.16,214.67l0.41-1.59c0.11-0.43,0.22-1,0.32-1.44h0.02c0.1,0.44,0.23,1,0.35,1.44l0.43,1.59H105.16
	L105.16,214.67z M111.12,217.82c0.35,0.06,0.93,0.11,1.7,0.11c1.38,0,2.23-0.24,2.73-0.68c0.43-0.38,0.72-0.91,0.72-1.58
	c0-0.96-0.59-1.61-1.38-1.84v-0.02c0.78-0.31,1.14-0.93,1.14-1.6c0-0.68-0.35-1.19-0.84-1.46c-0.51-0.32-1.09-0.42-2.05-0.42
	c-0.78,0-1.62,0.07-2.03,0.15V217.82L111.12,217.82z M112.67,211.6c0.13-0.02,0.33-0.04,0.67-0.04c0.71,0,1.11,0.3,1.11,0.86
	c0,0.55-0.44,0.92-1.27,0.92h-0.52V211.6L112.67,211.6z M112.67,214.55h0.54c0.78,0,1.41,0.3,1.41,1.05c0,0.79-0.63,1.08-1.34,1.08
	c-0.27,0-0.45,0-0.61-0.02V214.55L112.67,214.55z M121.45,210.26c-2.05,0-3.38,1.67-3.38,3.91c0,2.13,1.21,3.8,3.27,3.8
	c2.03,0,3.41-1.49,3.41-3.93C124.75,211.98,123.59,210.26,121.45,210.26L121.45,210.26z M121.41,211.6c1.08,0,1.68,1.15,1.68,2.49
	c0,1.45-0.61,2.54-1.67,2.54c-1.05,0-1.69-1.03-1.69-2.49C119.73,212.69,120.35,211.6,121.41,211.6L121.41,211.6z M126.83,217.85
	h1.56v-2.94h0.47c0.64,0.01,0.94,0.27,1.12,1.2c0.21,0.92,0.37,1.53,0.48,1.74h1.61c-0.13-0.29-0.35-1.26-0.57-2.11
	c-0.18-0.69-0.44-1.19-0.93-1.4v-0.03c0.6-0.23,1.23-0.89,1.23-1.84c0-0.69-0.23-1.21-0.64-1.56c-0.49-0.42-1.22-0.59-2.25-0.59
	c-0.84,0-1.59,0.07-2.09,0.15V217.85L126.83,217.85z M128.38,211.63c0.11-0.02,0.33-0.06,0.71-0.06c0.72,0.01,1.16,0.35,1.16,1.04
	c0,0.65-0.46,1.08-1.25,1.08h-0.62V211.63L128.38,211.63z M138.12,213.32h-2.56v-1.55h2.71v-1.39h-4.29v7.47h4.43v-1.39h-2.86v-1.77
	h2.56V213.32L138.12,213.32z M140.26,217.51c0.39,0.23,1.18,0.45,1.97,0.45c1.91,0,2.81-1.06,2.81-2.32c0-1.05-0.58-1.74-1.8-2.23
	c-0.9-0.37-1.29-0.58-1.29-1.05c0-0.39,0.33-0.72,1.01-0.72c0.68,0,1.18,0.21,1.45,0.35l0.35-1.36c-0.41-0.2-0.99-0.38-1.77-0.38
	c-1.64,0-2.63,0.98-2.63,2.25c0,1.09,0.75,1.77,1.91,2.21c0.84,0.32,1.16,0.59,1.16,1.05c0,0.49-0.38,0.81-1.1,0.81
	c-0.67,0-1.32-0.23-1.74-0.47L140.26,217.51L140.26,217.51z M153.33,210.26c-2.05,0-3.38,1.67-3.38,3.91c0,2.13,1.21,3.8,3.27,3.8
	c2.03,0,3.41-1.49,3.41-3.93C156.63,211.98,155.47,210.26,153.33,210.26L153.33,210.26z M153.29,211.6c1.08,0,1.68,1.15,1.68,2.49
	c0,1.45-0.61,2.54-1.67,2.54c-1.05,0-1.69-1.03-1.69-2.49C151.61,212.69,152.23,211.6,153.29,211.6L153.29,211.6z M158.71,217.85
	h1.56v-2.94h0.47c0.64,0.01,0.94,0.27,1.12,1.2c0.21,0.92,0.37,1.53,0.48,1.74h1.61c-0.13-0.29-0.35-1.26-0.57-2.11
	c-0.18-0.69-0.44-1.19-0.93-1.4v-0.03c0.6-0.23,1.23-0.89,1.23-1.84c0-0.69-0.23-1.21-0.64-1.56c-0.5-0.42-1.22-0.59-2.25-0.59
	c-0.84,0-1.59,0.07-2.09,0.15V217.85L158.71,217.85z M160.26,211.63c0.11-0.02,0.33-0.06,0.71-0.06c0.72,0.01,1.16,0.35,1.16,1.04
	c0,0.65-0.46,1.08-1.25,1.08h-0.62V211.63L160.26,211.63z M165.86,210.38v7.47h1.58v-7.47H165.86L165.86,210.38z M173.98,213.32
	h-2.56v-1.55h2.71v-1.39h-4.29v7.47h4.44v-1.39h-2.86v-1.77h2.56V213.32L173.98,213.32z M177.84,217.85v-2.25
	c0-1.22-0.02-2.27-0.06-3.26l0.03-0.01c0.34,0.88,0.79,1.84,1.21,2.64l1.49,2.88h1.65v-7.47h-1.44v2.18c0,1.12,0.03,2.13,0.13,3.11
	h-0.03c-0.31-0.84-0.72-1.77-1.13-2.56l-1.44-2.74h-1.84v7.47H177.84L177.84,217.85z M185.89,217.85h1.58v-6.05h1.9v-1.42h-5.34
	v1.42h1.87V217.85L185.89,217.85z M194.11,215.94l0.54,1.92h1.69l-2.16-7.47h-2.06l-2.12,7.47h1.63l0.49-1.92H194.11L194.11,215.94z
	 M192.35,214.67l0.41-1.59c0.11-0.43,0.22-1,0.32-1.44h0.02c0.1,0.44,0.23,1,0.35,1.44l0.43,1.59H192.35L192.35,214.67z
	 M198.31,217.85h4.34v-1.42h-2.76v-6.05h-1.58V217.85L198.31,217.85z M208.76,213.32h-2.56v-1.55h2.71v-1.39h-4.29v7.47h4.44v-1.39
	h-2.86v-1.77h2.56V213.32L208.76,213.32z M210.9,217.51c0.39,0.23,1.18,0.45,1.97,0.45c1.91,0,2.81-1.06,2.81-2.32
	c0-1.05-0.58-1.74-1.81-2.23c-0.9-0.37-1.29-0.58-1.29-1.05c0-0.39,0.33-0.72,1.01-0.72c0.68,0,1.18,0.21,1.45,0.35l0.35-1.36
	c-0.41-0.2-0.99-0.38-1.77-0.38c-1.64,0-2.63,0.98-2.63,2.25c0,1.09,0.75,1.77,1.91,2.21c0.84,0.32,1.16,0.59,1.16,1.05
	c0,0.49-0.38,0.81-1.1,0.81c-0.67,0-1.32-0.23-1.74-0.47L210.9,217.51z"/>
</svg>
