<svg xmlns="http://www.w3.org/2000/svg" viewBox="0 0 94.99 115.97"><defs><style>.cls-1{fill:#fefefe;}.cls-1,.cls-2,.cls-3,.cls-4{fill-rule:evenodd;}.cls-2{fill:#225c39;}.cls-3{fill:#e60c2b;}.cls-4{fill:#fff;}</style></defs><g id="Capa_2" data-name="Capa 2"><g id="Capa_1-2" data-name="Capa 1"><g id="Capa_1-3" data-name="Capa_1"><g id="_2223362202048" data-name=" 2223362202048"><path class="cls-1" d="M47.27,24.74l-4.51,6C38.87,36.11,33.69,44.31,30.42,50A234.55,234.55,0,0,0,16.54,78.18,109.2,109.2,0,0,0,9.3,102.41c-.25,1.55-.45,3.11-.61,4.69-.18,1.75-.17,3.19,1,4a1.57,1.57,0,0,0,2,0c1.3-.83,3.65-2.08,5.05-2.82a133.78,133.78,0,0,1,18.72-7.69c1.11-.38,3-.85,4-1.32-.84-1.72-1-4.63-1-6.78,0-9.61,2.81-21.62,5.52-30.1,1.45-4.52,3-8.79,4.78-13,.91-2.12,1.79-4.14,2.7-6.23s1.88-4,2.81-6.11c2.35-5.17,6.29-12.64,9.09-17.6a61.29,61.29,0,0,0,2.89-6,40.78,40.78,0,0,0,2.16-6.68,14.4,14.4,0,0,0,.51-3.78c-.23-1.44-1.25-1.9-2.67-1.35C57,5.14,47.31,7,37.44,8.44,29.77,9.54,21.6,10,14.06,11.75,9,13,6.38,16.05,5.26,20.81c-1,4.32-2.19,10.28-3.06,14.7-.22,1.11-.76,3,.78,3.08.63,0,1-.56,1.35-.85,4.12-3.64,7-5.69,12.81-7.34C25,28.16,36.51,28.47,44,26.08a31.85,31.85,0,0,0,3.24-1.34Z"/><path class="cls-2" d="M47.27,24.74A31.85,31.85,0,0,1,44,26.08c-7.52,2.39-19,2.08-26.89,4.32-5.8,1.65-8.69,3.7-12.81,7.34-.33.29-.72.88-1.35.85-1.54-.1-1-2-.78-3.08.87-4.42,2-10.38,3.06-14.7C6.38,16.05,9,13,14.06,11.75,21.6,10,29.77,9.54,37.44,8.44,47.31,7,57,5.14,66.19,1.58c1.42-.55,2.44-.09,2.67,1.35a14.4,14.4,0,0,1-.51,3.78,40.78,40.78,0,0,1-2.16,6.68,61.29,61.29,0,0,1-2.89,6c-2.8,5-6.74,12.43-9.09,17.6-.93,2.06-1.91,4-2.81,6.11s-1.79,4.11-2.7,6.23c-1.79,4.19-3.33,8.46-4.78,13-2.71,8.48-5.51,20.49-5.52,30.1,0,2.15.18,5.06,1,6.78-1,.47-2.84.94-4,1.32a133.78,133.78,0,0,0-18.72,7.69c-1.4.74-3.75,2-5.05,2.82a1.57,1.57,0,0,1-2,0c-1.17-.79-1.18-2.23-1-4,.16-1.58.36-3.14.61-4.69a109.2,109.2,0,0,1,7.24-24.23A234.55,234.55,0,0,1,30.42,50c3.27-5.7,8.45-13.9,12.34-19.25l4.51-6ZM0,38.5A4,4,0,0,0,1.27,42a4,4,0,0,0,5.1.43,7.08,7.08,0,0,0,.76-.68c6.14-5.72,11.46-7.38,20.05-8.36.88-.11,1.8-.25,2.68-.3s1.81-.21,2.69-.29c1.51-.13,6.62-.74,8-1a21.26,21.26,0,0,1-1.38,2.07c-1.9,2.87-4.46,6.62-6.2,9.55L25.79,55.55c-.43.78-.78,1.58-1.23,2.32l-2.93,5.81L21,64.9l-1.15,2.4c-.19.43-.32.74-.54,1.18A197.49,197.49,0,0,0,11.6,87.16c-.58,1.75-1.14,3.45-1.68,5.32a91.21,91.21,0,0,0-3,14.57c-.25,2.61-.84,4.74,1.07,7.07a4.77,4.77,0,0,0,4.2,1.85c1.1,0,2.82-1.19,3.93-1.83a120.19,120.19,0,0,1,20.28-8.82l4.32-1.44a3.4,3.4,0,0,0,1.88-1c1.77-1.76.41-3.16.1-5-.81-5,.35-12.73,1.23-17.43a136.13,136.13,0,0,1,5.52-20.49c.9-2.71,2.12-5.44,3.17-8.07s2.68-6.25,4-9c.11-.25.2-.4.32-.64,2.05-4.44,3.75-7.68,5.85-11.91l2-3.71c.21-.4.41-.73.64-1.18L66,24.23c.49-.81.87-1.58,1.34-2.41A54.22,54.22,0,0,0,72.47,8.25c.49-2.36,1-4.72-.69-6.69A4.37,4.37,0,0,0,67.87,0c-1,0-3.93,1.27-5,1.64-1.6.58-3.3,1.09-5,1.58-3.52,1-7.26,1.68-10.93,2.42S39.3,7,35.49,7.46c-4,.52-8,.82-11.94,1.4-4.61.67-10.72,1.28-14.35,3.8-5.56,3.85-5.66,9.1-7,14.7C1.91,28.62,0,37.87,0,38.5Z"/><path class="cls-3" d="M68.07,31A26.92,26.92,0,1,0,95,57.87,26.92,26.92,0,0,0,68.07,31Z"/><path class="cls-4" d="M68,44.07,61,45.51a2.62,2.62,0,0,1,.09,1.18c-.11.68-3.6,20.46-3.6,20.46-.74.56-3.79,1.57-3.36-1.28,0,0,3.18-18,3.3-18.52a1.21,1.21,0,0,0,0-.19,1.51,1.51,0,0,0-.3-.92L50,47.74A7.09,7.09,0,0,1,50.1,49a4.87,4.87,0,0,1,0,.54c-.11.65-2.84,16-3,17.46-.55,4.8,2.36,6.55,6.71,5.66a13.92,13.92,0,0,0,4.1-2c1.24-.88.12,1.06.46,1.06s5.44-1.2,5.44-1.2l1.42-8h0c.69-3.84,2.94-16.74,3-17.33a1.27,1.27,0,0,0,0-.2,1.42,1.42,0,0,0-.29-.86Z"/><path class="cls-4" d="M85.8,41.84a6.33,6.33,0,0,0-4.48-.39A18,18,0,0,0,77.86,43,1,1,0,0,0,77,42.3l-6.18,1.2a1.84,1.84,0,0,1,.3,1,1.63,1.63,0,0,1,0,.31c-.06.37-3.45,19-5.46,30.23-.19,1-.31,1.62-.34,1.72a3.27,3.27,0,0,1-.59,1.41L71.91,77a2.31,2.31,0,0,0,.6-1.28c0-.15,1.27-6.83,1.3-7s0,0,0-.07l2.55-.52c6.66-1.38,8.94-4.62,9.82-9.4.18-1.4,1.67-9.9,1.83-11.25.28-2.54-.43-4.7-2.26-5.69ZM81,48.75l-2,11.43C78.72,62,78,63.12,75.59,63.61l-.89.2,3.06-17.52.58-.11c2.38-.49,2.94,1.06,2.69,2.57Z"/></g></g></g></g></svg>