<svg xmlns="http://www.w3.org/2000/svg" viewBox="0 0 562.2 550.4"><defs><style>.cls-1{isolation:isolate;}.cls-2{fill:#fff;}.cls-3{fill:#e52a1b;}.cls-4,.cls-5{fill:#009f4d;}.cls-5{mix-blend-mode:multiply;}</style></defs><title>LOGO GUARANA</title><g class="cls-1"><g id="Capa_1" data-name="Capa 1"><path class="cls-2" d="M299.76,514.44l0-.43c-40.08-.57-92.88-1.9-135.06-4.94a434,434,0,0,1-57.44-7.94,138.23,138.23,0,0,1-14.59-3.95,56.43,56.43,0,0,1-10.33-4.74l-.32-.2a40.74,40.74,0,0,1-8.4-7.29,36.75,36.75,0,0,1-5.65-9.1c-3.46-8.07-3.61-16.44-3.37-22.84a83.16,83.16,0,0,1,1.24-10.47c.93-5.4,2-9.55,2.06-9.72l36.79-148.34c0-.1,1.18-4.94,3.16-11.47a172.4,172.4,0,0,1,6.08-17,133.3,133.3,0,0,1,9.87-19,111.2,111.2,0,0,1,19.44-22.75,108.73,108.73,0,0,1,20.51-14.52c38.87-21.37,91.57-31.76,161.12-31.76q4.16,0,8.41.05h.63c1.91,0,6.61-.07,11.6-.07,5.21,0,9.9.05,11.82.07h.79c2.71,0,5.5-.05,8.26-.05,69.55,0,122.26,10.39,161.15,31.77A109.17,109.17,0,0,1,548,214.37a111.48,111.48,0,0,1,19.45,22.74,132.92,132.92,0,0,1,9.85,18.95,164.89,164.89,0,0,1,6.08,17c2,6.5,3.13,11.32,3.19,11.52L623.42,433c0,.07,1.08,4.21,2,9.64A73.8,73.8,0,0,1,626.65,453c.26,6.38.12,14.74-3.28,22.7a37.93,37.93,0,0,1-5.71,9.24,40.75,40.75,0,0,1-8.42,7.3l-.32.21a57.7,57.7,0,0,1-10.36,4.75A136.64,136.64,0,0,1,584,501.12a435.15,435.15,0,0,1-57.45,7.95c-42.24,3-95.11,4.37-135.2,4.94v.43Z" transform="translate(-64.54 -155.26)"/><path class="cls-3" d="M598.85,449.86c-1.91,3.72-5.11,10.63-42.31,16.17-14.65,2.17-34.61,4.22-61.86,5.91-38.06,2.34-82.35,3-114.51,3.14v-.14H311.11v.14c-32.14-.14-76.45-.8-114.5-3.14-27.24-1.69-47.21-3.74-61.86-5.91-37.2-5.54-40.4-12.45-42.31-16.17-4.83-9.55-1.08-23-1.08-23L119,314.23s3.08-11.8,6.65-19.16a88.38,88.38,0,0,1,11.6-18.13c4.82-5.7,11.62-11.26,19.37-16.32,35.91-23.45,109.4-30.13,168.66-30l20.29-.09h.22l20.29.09c59.25-.17,132.75,6.51,168.65,30,7.74,5.06,14.56,10.62,19.38,16.32a88.3,88.3,0,0,1,11.59,18.13c3.56,7.36,6.64,19.16,6.64,19.16l27.61,112.66s3.75,13.42-1.07,23m17.78,3.53a66.87,66.87,0,0,0-1.1-9.13c-.85-5.06-1.85-8.89-1.85-8.89L576.85,286.9s-1.12-4.66-3-11a156.54,156.54,0,0,0-5.72-16A124.42,124.42,0,0,0,559,242.51a101.27,101.27,0,0,0-17.69-20.69,100.05,100.05,0,0,0-18.63-13.19C487,189,435.9,177.25,358.13,178.15c-.42,0-6.17-.08-12.37-.08h-.22c-6.21,0-12,.08-12.36.08-77.79-.9-128.84,10.83-164.6,30.48a101.31,101.31,0,0,0-36.31,33.88A124.53,124.53,0,0,0,123.18,260a160.92,160.92,0,0,0-5.71,16c-1.92,6.3-3,11-3,11L77.62,435.37s-1,3.83-1.87,8.89a71.94,71.94,0,0,0-1.1,9.13c-.23,6,0,12.56,2.5,18.37a27,27,0,0,0,4.09,6.64,30.41,30.41,0,0,0,6.32,5.46,47.14,47.14,0,0,0,8.55,3.89,128.18,128.18,0,0,0,13.25,3.56,425.79,425.79,0,0,0,56.08,7.75c45.46,3.28,104.45,4.58,144.72,5.05v.29h71v-.29c40.26-.47,99.25-1.77,144.72-5.05a425.63,425.63,0,0,0,56.06-7.75,127.53,127.53,0,0,0,13.26-3.56,47.38,47.38,0,0,0,8.54-3.89,30.79,30.79,0,0,0,6.34-5.46,27.59,27.59,0,0,0,4.08-6.64c2.48-5.81,2.73-12.41,2.49-18.37" transform="translate(-64.54 -155.26)"/><path class="cls-2" d="M268.16,289.38l1.23-7.86c.15-.93,16-93.3,131.67-93.3a272.65,272.65,0,0,1,50.13,5c19,3.58,47.68,9,73.69,9,33.24,0,53.83-8.39,63-25.68l11.27-21.3,7.18,23c.91,2.9,21.77,71.73-12.64,129.3-21,35.16-57.78,58.05-109.27,68l-2.92.57Z" transform="translate(-64.54 -155.26)"/><path class="cls-4" d="M279.3,283.08s17.11-108.79,170-80c45.39,8.56,123.72,22.89,147.4-21.85,0,0,47.76,153.14-114.24,184.45Z" transform="translate(-64.54 -155.26)"/><path class="cls-2" d="M578.05,218.39s-21,56.42-105.44,27.06A165.49,165.49,0,0,0,416.46,236c-2.2-.12-4.42-.2-6.65-.2a116.37,116.37,0,0,0-78.63,30.51l-1.42-1.07A109.81,109.81,0,1,0,249.13,462l.55,2.85a102.23,102.23,0,0,0,200,2.89l1.33-5.89a116.68,116.68,0,0,0,42.21-190.94c80.71,6.58,84.83-52.54,84.83-52.54" transform="translate(-64.54 -155.26)"/><path class="cls-3" d="M264.16,463.05c-1.55,0-3.09-.05-4.63-.11a92.2,92.2,0,0,0,180.37,2.61,119,119,0,0,1-29.8,3.8,117.49,117.49,0,0,1-78.25-29.65,109.32,109.32,0,0,1-67.69,23.35" transform="translate(-64.54 -155.26)"/><path class="cls-3" d="M164.31,353.24a99.77,99.77,0,0,0,159.16,80.19,119.59,119.59,0,0,1,.28-160.16,99.78,99.78,0,0,0-159.44,80" transform="translate(-64.54 -155.26)"/><path class="cls-3" d="M303,352.6A106.78,106.78,0,1,0,409.81,245.82,106.77,106.77,0,0,0,303,352.6" transform="translate(-64.54 -155.26)"/><path class="cls-2" d="M430.26,274.54c-2.37-8-18-9.46-34.87-3.34s-28.62,17.54-26.25,25.5,18,9.47,34.87,3.35,28.64-17.54,26.25-25.51m-187.5,7.25c-14.45,4.65-24.74,14-23,21s14.91,8.8,29.36,4.17,24.74-14,23-21-14.89-8.81-29.35-4.18" transform="translate(-64.54 -155.26)"/><path class="cls-5" d="M356.89,691.46c-.59-2.67-1.44-6.86-2.36-11.3s-1.85-8.95-2.59-12.46c-.11-.51-.29-1.07-1-1.07a33.11,33.11,0,0,0-5.63.84l-.21,0,.06.19.23.91c-2.35,4.34-11.11,19-16.92,28.65-1.54,2.57-2.88,4.8-3.83,6.4l0,.06v.06l0,.41,0,.13.11,0a21.25,21.25,0,0,0,5,.73,2,2,0,0,0,1.82-1c1.18-2,3.74-6.39,6-10.33h12.91c.5,2.3.86,4,1.22,5.61.25,1.19.51,2.32.81,3.64.29,1.59.66,2,1.61,2a26.79,26.79,0,0,0,5.44-.67l.11,0,0-.13.07-.29v0l0-.05c-.72-3-1.53-6.64-2.78-12.43M340,688.92l1.13-2.07c2.38-4.39,4.14-7.61,6.09-10.84.58,2.49,1.42,6.82,2.52,12.91Zm-93.52,2.54c-.58-2.67-1.45-6.86-2.36-11.29s-1.85-9-2.6-12.47c-.1-.51-.29-1.07-1-1.07a33.44,33.44,0,0,0-5.65.84l-.19,0,0,.19.24.91c-2.35,4.36-11.15,19-17,28.77-1.5,2.53-2.8,4.7-3.75,6.28l0,.06,0,.06v.54l.12,0a21.33,21.33,0,0,0,5,.73,2,2,0,0,0,1.83-1c1-1.69,3.44-5.88,6-10.33H240c.52,2.3.89,4,1.24,5.61.24,1.19.5,2.32.79,3.64.31,1.59.67,2,1.63,2a26.87,26.87,0,0,0,5.43-.67l.12,0,0-.13.05-.29v0l0-.05c-.7-3-1.51-6.57-2.77-12.43m-16.84-2.54,1.15-2.1c2.37-4.37,4.12-7.59,6.06-10.81.56,2.49,1.41,6.82,2.52,12.91Zm101.69-21.87,0-.22H311.08c-5.66,0-7.5-.07-8.63-.3l-.1,0-.07.06a9.74,9.74,0,0,0-2.53,3.68,1.25,1.25,0,0,0,0,1.11c.18.27.56.38,1.22.38h10.49l-6.14,32.14a1.12,1.12,0,0,0,.18.93c.19.23.49.31,1,.31a27.33,27.33,0,0,0,5.57-.39l.13,0v-.14c.13-1,.42-2.89,1.25-7.35l4.85-25.47h9.27c1.54-.23,3.36-1.58,3.81-4.68m-42.71-.18c-1,.11-1.51.4-1.76,1.75l-3,16.73-.08.47c-.49,2.65-.9,4.94-1.26,8.08-.91-2.47-2.16-5.17-3.82-8.59-.94-2-1.93-4.06-2.9-6.1-2.41-5.06-4.69-9.84-5.61-11.44a1.91,1.91,0,0,0-1.66-1.14c-.83,0-4.7.29-5.88.45l-.14,0,0,.13-.14.9,0,.07,0,0,.48,1.2a2.85,2.85,0,0,1,.2,1.83c-.61,3-1.21,6-1.8,9-1.59,8.06-3.24,16.41-5,24.54l-.05.23h1.41a35.66,35.66,0,0,0,3.65-.14c.91-.14,1.35-.38,1.66-1.79l2.88-16.31c.59-3,1.07-6,1.73-10.84,1.18,3.41,2.32,6,3.75,9.19l.56,1.25c3.33,7.3,6,12.72,8,16.7l.63,1.23c.41.82.78,1.08,1.49,1.08a13.45,13.45,0,0,0,4.18-1l.1,0,0-.1c2.2-13.15,6-32,7.16-37.53l0-.24h-.24c-1.09,0-2.94.07-4.56.24m194.13-.24c-1.21,0-4.48.29-5.61.47l-.13,0,0,.14c-.12.87-.28,1.73-.42,2.59-.26,1.72-.55,3.48-.87,5.21l-5.33,28.72a1.15,1.15,0,0,0,.12,1,1.13,1.13,0,0,0,.94.31,43.52,43.52,0,0,0,5.63-.35l.12,0,0-.13c.08-.46.17-1,.26-1.65.21-1.31.49-3.09,1-5.78l5-26.78c.39-2.24.4-3.06.07-3.46a.93.93,0,0,0-.76-.29m-87.55,10.44a9.77,9.77,0,0,0-2.64-7.21c-2.21-2.22-5.58-3.34-10.08-3.34a39.22,39.22,0,0,0-11,1.59l-.1,0,0,.08-1.25,3.3,0,.11.07.07.45.58.07.09.12,0,.39-.07a22.65,22.65,0,0,1,2.45-.44c-.14,1-.35,2.19-.75,4.45L369.22,694c-1.11,5.64-1.86,9-2.31,10.86l-.07.24h.26l1.5,0c1.44,0,2.64,0,3.59-.11a1.93,1.93,0,0,0,2.05-1.85l2.69-13.68.84,0,1.22-.07h.15c.49,0,.81.25,1.1.85,2.46,5.64,4.12,9.18,5.36,11.48,1.53,2.94,3,3.52,5.12,3.52a11.62,11.62,0,0,0,4-.51l.1,0,0-.1.06-.21,0-.11-.06-.07a42.09,42.09,0,0,1-3.74-6.39c-1.84-3.61-3.57-7.22-4.58-9.73,5.74-2.33,8.67-6,8.72-11m-11.61,6.81a15.27,15.27,0,0,1-5.76,1.1l2.54-13.64a13.23,13.23,0,0,1,1.86-.09,6,6,0,0,1,4.35,1.59,5.75,5.75,0,0,1,1.51,4.35,7.13,7.13,0,0,1-4.5,6.69m173.2,20c-.72-3-1.54-6.6-2.78-12.43-.58-2.67-1.45-6.84-2.36-11.27s-1.84-9-2.6-12.49c-.1-.51-.29-1.07-1-1.07a33.54,33.54,0,0,0-5.66.84l-.19,0,0,.19.23.92c-2.34,4.35-11.18,19.07-17,28.83-1.51,2.49-2.8,4.66-3.74,6.21l0,.06,0,.06v.54l.13,0a21.25,21.25,0,0,0,5,.73,2,2,0,0,0,1.83-1c1-1.69,3.43-5.87,6-10.32h12.89c.5,2.2.86,3.84,1.21,5.43.26,1.23.52,2.45.83,3.82.3,1.59.67,2,1.62,2a26.13,26.13,0,0,0,5.44-.68l.12,0,0-.13.05-.29v-.09Zm-19.63-15,1.08-2c2.42-4.43,4.18-7.68,6.14-10.92.57,2.49,1.42,6.81,2.52,12.91Zm-23.88-23c-16.4,0-23.78,13.6-23.78,23.25,0,10.64,5.8,16.49,16.33,16.49a20.34,20.34,0,0,0,9.24-1.91c1-.94,1.56-3,1.68-4.6V699l-.09-.07-.16-.12-.1-.07-.1,0a22.63,22.63,0,0,1-8.67,1.77c-6.74,0-10.75-4.29-10.75-11.52,0-11.36,8.2-18.14,16.12-18.14a13.38,13.38,0,0,1,4.85.82,3.26,3.26,0,0,0,.92.15,1.82,1.82,0,0,0,1.62-.91,7.69,7.69,0,0,0,1.07-2.85l0-.11-.08-.06c-.7-.67-3.59-2.05-8.14-2.05m-72.59.6-.09,0-.07.06a9.41,9.41,0,0,0-2.53,3.68,1.21,1.21,0,0,0,0,1.11c.19.27.55.38,1.22.38H449.7l-6.12,32.14a1.09,1.09,0,0,0,.17.93c.18.23.5.31,1,.31a27.34,27.34,0,0,0,5.56-.39l.13,0,0-.14c.13-1,.41-2.92,1.24-7.35l4.84-25.47h9.27c1.56-.23,3.37-1.58,3.82-4.68l0-.22H449.37c-5.66,0-7.52-.07-8.64-.31m-15.65-.6c-16.41,0-23.79,13.6-23.79,23.25,0,10.64,5.79,16.49,16.32,16.49a20.28,20.28,0,0,0,9.24-1.91c1-.94,1.56-3,1.69-4.59V699l-.07-.07-.19-.12-.08-.07-.11,0a22.58,22.58,0,0,1-8.66,1.77c-6.73,0-10.76-4.29-10.76-11.52,0-11.36,8.2-18.14,16.13-18.14a13.36,13.36,0,0,1,4.84.82,3.3,3.3,0,0,0,.93.16,1.87,1.87,0,0,0,1.62-.92,7.35,7.35,0,0,0,1.07-2.85V668l-.07-.06c-.7-.67-3.58-2.05-8.12-2.05" transform="translate(-64.54 -155.26)"/><path class="cls-5" d="M574.62,624.45c-3.27,9-10.84,16.8-16.35,16.8-4.37,0-4.4-5.92-4.14-8.12.64-5.49,3.55-18.63,5.88-27.07a68.4,68.4,0,0,1,2.7-7.63,62.16,62.16,0,0,0-12.91-2.61c-14.38-1.39-36.39,1.41-42.6,29.68l-.14.39c-4.35,7-10.59,15.09-13.93,15.09-3.87,0-.25-10.41,1.33-15.87,1.9-6.44,3.83-13.1,3.83-17.14,0-6.31-4.14-10.08-11.09-10.08-6.53,0-14.41,6.9-17.27,9.62.54-2.17,2.3-9.36,2.3-9.36l-23.83.58-1.17,4.87c.37,0,5.5-.45,6.75,1.17.68.88.64,2.66,0,5.39l-2.79,11.73c-1.31,3.92-9.81,19.36-16.42,19.36h-.08c-4.38,0-4.43-5.92-4.16-8.12.64-5.49,3.56-18.63,5.88-27.07a63.09,63.09,0,0,1,2.71-7.63,62.56,62.56,0,0,0-12.92-2.61c-14.05-1.36-35.4,1.28-42.16,27.82l-.06.05c-.27.55-7.23,13.95-13.27,13.95-2.66,0-3.19-3.23-3.23-5.91-.08-3.78,2.57-12.19,4.91-17.59,4.44-10.32,9.74-15.71,9.74-15.71H344.23a47.25,47.25,0,0,1-1.06,12.48c-2.52,11.28-9,30.34-17.22,30.34-4.39,0-4.43-5.92-4.15-8.12.62-5.49,3.54-18.63,5.88-27.07a65,65,0,0,1,2.69-7.63,62.15,62.15,0,0,0-12.9-2.61c-14.39-1.39-36.4,1.41-42.61,29.68-3,5.18-9.89,14-13.57,14-3.11,0-1.85-4.49-1.13-7.48,2.08-8.75,8.68-33.56,8.68-33.56H253.3s-7.59,28.31-7.61,28.45c-1.22,1.91-9.88,13-13.1,13-3.48,0-1.66-5.71-.41-10.52l8.13-31.16-23.17.54L216,603.37s4.32,0,5.37,1.31c.9,1.13.72,2.33.24,4.8-.53,2.79-8,28.43-7.8,34,.13,4.54,3.24,9.46,10,9.46,7.9,0,16.64-10.18,19.49-13.76-.07.56-1.53,13.76,9.09,13.76,9.66,0,19.35-12.9,22-16.69.47,4,3,16.69,16.57,16.69,9.66,0,15.16-7.56,16.81-10.22.86,2.78,4,9.69,12.39,10.22,19.55,1.26,29.07-35.63,30-39.74h10.07c-1.75,2.95-8.55,15-8.55,25.65,0,8.71,4.1,14.09,10.73,14.09,10.23,0,18.23-12.44,20.57-16.48l.13-.21c.47,4,3,16.69,16.58,16.69,9.63,0,15.17-7.56,16.79-10.22.88,2.78,4,10.22,12.41,10.22H429c8.5,0,14-6.25,18.26-13-.88,3.63-3,12.58-3,12.58h14.87s8.12-33.82,8.17-34c2.49-2.65,9.36-9.31,12.45-9.31.93,0,2,.34,2,3.05,0,2.13-1.33,6.73-2.72,11.58-1.78,6.17-3.77,13.15-3.77,17.39,0,7.5,3.66,11.79,10,11.79,10.17,0,18.07-11.12,21.48-15.94l.06-.09c.67,4.61,3.65,16,16.48,16,9.67,0,15.17-7.56,16.81-10.22.87,2.78,4,10.22,12.42,10.22,13.09,0,21.29-14.4,25.74-26ZM314,605.72c-6.37,20.69-6.23,36.33-18.55,36.33-7.38,0-7.87-9.3-4.7-20.27,6.45-22.24,24.52-16.14,23.25-16.06m108.71,0c-6.37,20.69-6.23,36.33-18.55,36.33-7.38,0-7.88-9.3-4.7-20.27,6.44-22.24,24.53-16.14,23.25-16.06m123.63,0c-6.38,20.69-6.23,36.33-18.56,36.33-7.37,0-7.88-9.3-4.69-20.27,6.45-22.24,24.53-16.14,23.25-16.06" transform="translate(-64.54 -155.26)"/><path class="cls-5" d="M180,585.23c14.17-2.75,14.77-13.46,14.77-14.25,0-11.6-9.27-19.39-23.07-19.39-24.22,0-45.69,28.75-45.69,55.49,0,14.51,9.37,29.22,27.29,29.32h.15c34.84-.19,40-38.07,40-38.07l19.08-.34s-.89,2.7-1.94,6.58c-2.73,10.08-7.65,28.49-7.65,28.49-5.8,21.59-18.89,72.49-64.71,72.49-13,0-32.4-8.07-32.4-28.27,0-18.73,23.07-14.82,25.55-14.29-11.12,9.27-11.51,33.84,9.5,33.84,9.26,0,27.34-7.3,36.27-38.54,0,0,6.66-23.08,8-27.65-4.4,6.25-17.92,22.29-40.34,22.29-21,0-36.28-16.24-36.28-38.65,0-41.74,38.21-76.27,72.68-76.27,16.82,0,31.13,11.48,30.33,25.49-1.35,23.53-25.5,25.78-33.19,25.64Z" transform="translate(-64.54 -155.26)"/><path class="cls-5" d="M527.67,592.14s1.61-20.15,29.18-19.84A15.27,15.27,0,0,1,546.35,586c-4.66,1.6-10.69.44-18.68,6.15" transform="translate(-64.54 -155.26)"/></g></g></svg>