<svg xmlns="http://www.w3.org/2000/svg" viewBox="0 0 83.43 101.84"><defs><style>.cls-1{fill:#1a61a9;}.cls-2{fill:#0d5ea9;}.cls-3{fill:#e22930;}.cls-4{fill:#2384c3;}.cls-5{fill:#2a86c4;}.cls-6{fill:#2a65ac;}</style></defs><g id="Capa_2" data-name="Capa 2"><g id="Capa_1-2" data-name="Capa 1"><path class="cls-1" d="M54.8,70.53H42.72V85.27H35.39v-1c0-3.4-.09-6.79-.14-10.19v-.47a18.33,18.33,0,0,1-8.34,10,18,18,0,0,1-17.34.15,19.24,19.24,0,0,1-5.32-4.4,16.4,16.4,0,0,1-2.62-4.19A17.6,17.6,0,0,1,.11,70,18.08,18.08,0,0,1,12.8,50.65,17.45,17.45,0,0,1,22,50.29a18.14,18.14,0,0,1,8,4.15A20.61,20.61,0,0,1,35.16,62V50.8h7.65V63.68H54.32a.34.34,0,0,0,.38-.32,0,0,0,0,0,0,0V50.67c.21,0,.4-.06.58-.06h6.39c.64,0,.67,0,.68.66v34a69.16,69.16,0,0,1-7.62.06ZM18.11,57A10.91,10.91,0,1,0,28.93,68.1,10.74,10.74,0,0,0,18.53,57Z"/><path class="cls-2" d="M66.27,13.79c1.93,0,3.82-.12,5.71-.14a7.29,7.29,0,0,1,7,5.51,10.42,10.42,0,0,1,.36,3.09v3.14c0,1-.2,2.29-.3,3.43-.06.73-.12,1.46-.17,2.19-.07,1-.12,2.08-.21,3.12s-.2,1.78-.3,2.67v.42L78,42.27c-.11,1.46-.22,2.92-.34,4.37-.09,1.06-.2,2.12-.3,3.18v.08c-.07,1.27-.14,2.54-.19,3.81-.07,1.86-.06,3.73-.21,5.58-.2,2.35-.09,4.69-.14,7v.34c0,.29-.16.4-.43.4a4.34,4.34,0,0,1-.51,0L74,66.89a13.86,13.86,0,0,1-2.93-.46A3.8,3.8,0,0,1,68.2,63.2a32.41,32.41,0,0,1-.36-3.94c-.18-3.19,0-6.4-.2-9.59-.17-3.79,0-7.58-.14-11.38-.06-2.57,0-5.14-.2-7.71-.08-1.41-.08-2.82-.14-4.23,0-1.07-.1-2.14-.17-3.2-.11-1.66-.2-3.32-.35-5-.12-1.39-.31-2.78-.47-4.17C66.21,14,66.24,13.93,66.27,13.79Z"/><path class="cls-3" d="M35.76,48.68c.54-.62,1-1.14,1.42-1.64,1.52-1.72,3-3.42,4.57-5.14l5.33-6c1.3-1.46,2.6-2.91,3.89-4.38a18.77,18.77,0,0,0,2.46-3.42,7.48,7.48,0,0,0,1-4.36,3.88,3.88,0,0,0-2.94-3.48,5.29,5.29,0,0,0-5.87,2.65,30.21,30.21,0,0,0-1.25,2.78L37.91,23a13.54,13.54,0,0,1,1.85-3.94,12.66,12.66,0,0,1,7.8-5.36,14.49,14.49,0,0,1,4.15-.27,11.71,11.71,0,0,1,6.09,2,9.16,9.16,0,0,1,3.77,5.23c.19.7.24,1.43.38,2.15a7.56,7.56,0,0,1,0,2.42,11.52,11.52,0,0,1-.77,3,17.53,17.53,0,0,1-2.46,4.2c-1,1.27-2,2.52-3.06,3.72-1.54,1.74-3.14,3.42-4.72,5.12-.21.23-.38.48-.57.71v.09H62.5a51.92,51.92,0,0,1,.06,6.6Z"/><path class="cls-1" d="M72.79,71.7a7.06,7.06,0,1,1-7.06,7.06A7.06,7.06,0,0,1,72.79,71.7Z"/><path class="cls-4" d="M11.71,48.55c-.11,0-.23.15-.34.15H3.74V14.6a2,2,0,0,0,.1-.72c0-.18-.3-.3-.4-.48a1.05,1.05,0,0,1,.26-1.46h0a1.13,1.13,0,0,1,1.57.23v0a1.36,1.36,0,0,1,0,1.35c-.1.13-.23.24-.4.43h7.18v13H24.48c-.16.34-.46.15-.68.15H11.86V14.17h-8V48.53h7.78Z"/><path class="cls-1" d="M79.56,97.43a1.58,1.58,0,0,1-1.63-1.52.41.41,0,0,1,0-.11,1.67,1.67,0,0,1,1.57-1.75h.08a1.89,1.89,0,0,1,1.74,1.72A1.72,1.72,0,0,1,79.56,97.43Z"/><path class="cls-5" d="M6,5.43A1.39,1.39,0,0,1,7.62,6.57a1.53,1.53,0,0,1,0,.37A1.59,1.59,0,0,1,6.18,8.67H6.11A1.83,1.83,0,0,1,4.44,7,1.59,1.59,0,0,1,6,5.43Z"/><path class="cls-6" d="M79.29,89.33a1.34,1.34,0,0,1,1.25-1.43h.08a1.43,1.43,0,0,1,0,2.85,1.34,1.34,0,0,1-1.33-1.35Z"/><path class="cls-5" d="M9.22,3.16a1.41,1.41,0,0,1,1.41-1.4A1.4,1.4,0,0,1,12,3.16a1.48,1.48,0,0,1-1.33,1.38,2,2,0,0,1-1-.45A2.91,2.91,0,0,1,9.22,3.16Z"/><path class="cls-5" d="M5.38,2.22A1.11,1.11,0,0,1,5.38,0h0A1.21,1.21,0,0,1,6.54,1.15,1.3,1.3,0,0,1,5.38,2.22Z"/><path class="cls-6" d="M79.31,100.78a1.07,1.07,0,0,1-1.08,1.06h-.12a1.22,1.22,0,0,1-1-1.13A1,1,0,0,1,78,99.63h.21a1,1,0,0,1,1.07.93A.74.74,0,0,1,79.31,100.78Z"/><path class="cls-6" d="M75.41,91.29a1,1,0,0,1-1-1v-.06a1.1,1.1,0,1,1,2.2,0,1,1,0,0,1-.87,1.11A.92.92,0,0,1,75.41,91.29Z"/><path class="cls-5" d="M9.83,6a1,1,0,0,1,1,1,1,1,0,0,1-1,.92A.95.95,0,1,1,9.64,6h.19Z"/><path class="cls-6" d="M82.43,91.48a1.06,1.06,0,0,1,1,1,1,1,0,0,1-.93,1,1,1,0,0,1,0-2Z"/><path class="cls-5" d="M9.65,12.27a1,1,0,0,1-1-.82c0-.37.6-1.06,1-1a1,1,0,0,1,.91,1A.78.78,0,0,1,9.65,12.27Z"/><path class="cls-5" d="M7.61,4a.7.7,0,0,1-.69.72h0A1,1,0,0,1,6.1,4a.89.89,0,0,1,.84-.75A.73.73,0,0,1,7.62,4Z"/><path class="cls-5" d="M6.48,11.24a.72.72,0,0,1-.73-.71v0a.9.9,0,0,1,.73-.77.94.94,0,0,1,.78.73.75.75,0,0,1-.73.78Z"/><path class="cls-6" d="M81.47,84.82a.71.71,0,0,1-.79-.63v0a.89.89,0,0,1,.66-.84.94.94,0,0,1,.86.76.73.73,0,0,1-.72.74Z"/><path class="cls-6" d="M82.72,98.74a.47.47,0,0,1-.4.54c-.22,0-.66-.33-.57-.5a1.24,1.24,0,0,1,.5-.49C82.46,98.19,82.7,98.43,82.72,98.74Z"/><path class="cls-4" d="M32.64,48.54H24.7c-.06-.81-.08-1.63-.06-2.45V33.75h-13V48.53H3.91V14.17h8V27.08H23.85c.22,0,.52.19.68-.15.34-.16.15-.46.15-.68v-12a71.17,71.17,0,0,1,8,0Z"/></g></g></svg>