<?xml version="1.0" encoding="utf-8"?>
<!-- Generator: Adobe Illustrator 23.0.2, SVG Export Plug-In . SVG Version: 6.00 Build 0)  -->
<svg version="1.1" id="Layer_1" xmlns="http://www.w3.org/2000/svg" xmlns:xlink="http://www.w3.org/1999/xlink" x="0px" y="0px"
	 viewBox="0 0 567 342" style="enable-background:new 0 0 567 342;" xml:space="preserve">
<style type="text/css">
	.st0{opacity:0.3;}
	.st1{fill:#231F20;}
	.st2{fill:#FFFFFF;}
</style>
<rect width="567" height="342"/>
<g>
	<g>
		<g>
			<g>
				<g>
					<g>
						<path class="st2" d="M415.6,173.24c-4.96-6.42-13.21-16.88-13.21-16.88c10.43-2.62,15.54-9.47,15.54-16.73
							c0-18.59-20.03-21.36-31.97-21.36h-33.88h-1.82c0,0,1.82,0.89,1.82,3.76v56.26c0,2.88-1.82,3.76-1.82,3.76h1.82h23.59h1.83
							c0,0-1.83-0.89-1.83-3.76v-22.07l15.31,20.52c0,0,3.29,5.31,13.5,5.31c11.31,0,20.66,0,20.66,0S420.57,179.67,415.6,173.24z
							 M375.66,146.89V132.9h5.02c3.21,0,11.74-0.19,11.74,6.97c0,7.01-8.99,7.01-11.94,7.01H375.66z"/>
						<path class="st2" d="M258.09,118.27h-24.25H232c0,0,1.83,0.89,1.83,3.76v32.06c0,4.8,0,12.81-11.64,12.81
							c-11.64,0-11.64-8.02-11.64-12.81v-32.06c0-2.87,1.83-3.76,1.83-3.76h-1.83h-24.25h-1.83c0,0,1.83,0.89,1.83,3.76v34.44
							c0,22.05,19.52,26.68,35.88,26.68c16.37,0,35.89-4.63,35.89-26.68v-34.44c0-2.87,1.83-3.76,1.83-3.76H258.09z"/>
						<path class="st2" d="M173.51,118.27h-1.83h-23.13h-1.83c0,0,1.83,0.89,1.83,3.76v19.51h-25.29v-19.51
							c0-2.87,1.83-3.76,1.83-3.76h-1.83h-23.11H98.3c0,0,1.84,0.89,1.84,3.76v56.26c0,2.88-1.84,3.76-1.84,3.76h1.84h23.11h1.83
							c0,0-1.83-0.89-1.83-3.76v-20.23h25.29v20.23c0,2.88-1.83,3.76-1.83,3.76h1.83h23.13h1.83c0,0-1.83-0.89-1.83-3.76v-56.26
							C171.68,119.16,173.51,118.27,173.51,118.27z"/>
						<path class="st2" d="M343.15,178.42l-26.89-56.4l0,0.02c-0.34-0.7-0.51-1.27-0.59-1.76l0-0.03c-0.09-0.72,0.05-1.2,0.21-1.52
							c0.01-0.01,0.01-0.02,0.02-0.02c0.1-0.19,0.2-0.31,0.29-0.37l0.01-0.02c0.03-0.04,0.05-0.05,0.05-0.05h-26.77
							c0,0,0.03,0.01,0.07,0.05l0.01,0.01c0.08,0.07,0.19,0.19,0.29,0.38l0.01,0.03c0.28,0.52,0.48,1.53-0.39,3.29l0.01-0.02
							c0,0,0,0.01-0.01,0.01l-26.89,56.4c-1.38,2.77-3.57,3.64-3.57,3.64h1.83h24.79h0.19h1.64c0,0-1.4-0.89-0.02-3.76l-0.35,0.71
							l2.15-5.11h27.21l2.23,5.22c0.75,2.21-0.36,2.94-0.36,2.94h1.62l0.03,0.08l0.04-0.08h0.15h24.73h1.82
							C346.7,182.06,344.52,181.19,343.15,178.42z M302.36,143l0.49-1.01l7.49,17.56h-15.04L302.36,143z"/>
						<path class="st2" d="M460.17,178.3v-56.26c0-2.87,1.83-3.76,1.83-3.76h-1.83h-24.25h-1.83c0,0,1.83,0.89,1.83,3.76v56.26
							c0,2.88-1.83,3.76-1.83,3.76h1.83h24.25H462C462,182.06,460.17,181.17,460.17,178.3z"/>
					</g>
					<g class="st0">
						<path class="st2" d="M123.25,178.3v-20.23h-2.16v20.23c0,2.88,1.83,3.76,1.83,3.76h0.33h1.83
							C125.08,182.06,123.25,181.17,123.25,178.3z"/>
						<path class="st2" d="M173.51,118.27h-1.83h-0.33c0,0-1.84,0.89-1.84,3.76v56.26c0,2.88,1.84,3.76,1.84,3.76h0.33h1.83
							c0,0-1.83-0.89-1.83-3.76v-56.26C171.68,119.16,173.51,118.27,173.51,118.27z"/>
						<path class="st2" d="M208.4,122.04v32.06c0,4.8,0,12.81,11.63,12.81c0.39,0,0.72-0.03,1.08-0.05
							c-10.52-0.5-10.56-8.12-10.56-12.76v-32.06c0-2.87,1.83-3.76,1.83-3.76h-1.83h-0.33C210.23,118.27,208.4,119.16,208.4,122.04z
							"/>
						<path class="st2" d="M121.09,122.04v19.51h2.16v-19.51c0-2.87,1.83-3.76,1.83-3.76h-1.83h-0.33
							C122.92,118.27,121.09,119.16,121.09,122.04z"/>
						<rect x="373.51" y="132.9" class="st2" width="2.16" height="13.99"/>
						<polygon class="st2" points="295.29,159.56 302.84,142 301.79,139.53 293.13,159.56 						"/>
						<path class="st2" d="M258.09,122.04c0-2.87,1.83-3.76,1.83-3.76h-1.83h-0.33c0,0-1.83,0.89-1.83,3.76v34.44
							c0,21.57-18.67,26.46-34.81,26.66c0.36,0,0.72,0.02,1.08,0.02c16.37,0,35.89-4.63,35.89-26.68V122.04z"/>
						<path class="st2" d="M375.66,178.3v-22.08l-2.16-2.9v24.98c0,2.88,1.83,3.76,1.83,3.76h0.33h1.83
							C377.5,182.06,375.66,181.17,375.66,178.3z"/>
						<path class="st2" d="M343.15,178.42l-26.89-56.4c-0.34-0.69-0.5-1.26-0.59-1.74l0-0.03c-0.09-0.72,0.05-1.2,0.21-1.52
							c0.01-0.01,0.01-0.02,0.02-0.02c0.1-0.19,0.2-0.31,0.29-0.37l0.01-0.02c0.03-0.04,0.05-0.05,0.05-0.05h-1.84l-0.01-0.03
							l-0.31,0.03c0,0-0.03,0.01-0.06,0.05l-0.01,0.02c-0.09,0.06-0.19,0.18-0.3,0.37c0,0-0.01,0.01-0.02,0.02
							c-0.16,0.31-0.3,0.79-0.21,1.52v0.03c0.09,0.48,0.25,1.05,0.59,1.74l0.01-0.01c0,0,0,0.01-0.01,0.01l26.89,56.4
							c1.37,2.77,3.55,3.64,3.55,3.64h0.34h1.82C346.7,182.06,344.52,181.19,343.15,178.42z"/>
						<path class="st2" d="M415.6,173.24c-4.96-6.42-13.21-16.88-13.21-16.88c10.43-2.62,15.54-9.47,15.54-16.73
							c0-18.59-20.03-21.36-31.97-21.36h-2.16c11.94,0,31.97,2.77,31.97,21.36c0,7.26-5.11,14.1-15.54,16.73
							c0,0,8.25,10.46,13.21,16.88c4.97,6.43,9.53,8.82,9.53,8.82c1.37,0,2.16,0,2.16,0S420.57,179.67,415.6,173.24z"/>
						<path class="st2" d="M287.08,173.9l-2.15,5.11l0.35-0.71c-1.38,2.88,0.02,3.76,0.02,3.76h0.34h0.19h1.64
							c0,0-1.4-0.89-0.02-3.76l-0.35,0.71l2.15-5.11H287.08z"/>
						<polygon class="st2" points="319.96,182.14 320,182.06 319.93,182.06 						"/>
						<path class="st2" d="M316.26,122.01L316.26,122.01L316.26,122.01c0,0.01,0,0.02,0,0.02V122.01z"/>
						<path class="st2" d="M460.17,178.3v-56.26c0-2.87,1.83-3.76,1.83-3.76h-1.83h-0.33c0,0-1.83,0.89-1.83,3.76v56.26
							c0,2.88,1.83,3.76,1.83,3.76h0.33H462C462,182.06,460.17,181.17,460.17,178.3z"/>
					</g>
				</g>
			</g>
			<g>
				<path class="st2" d="M179.74,119.37c0,0-3.98,0.65-4.02,5.62v50.54c0.03,2.82,1.31,4.23,2.43,4.94l1.13,0.55
					c0.27,0.09,0.46,0.13,0.46,0.13l0.33,0.26c-0.5-0.56-1.05-1.53-1.05-3.11v-56.26C179.02,120.81,179.35,119.96,179.74,119.37z"/>
				<path class="st2" d="M379.71,175.46c0,2.97,1.39,4.39,2.54,5.08l0.95,0.46c0.32,0.11,0.55,0.15,0.55,0.15l0.28,0.22
					c-0.49-0.56-1.02-1.51-1.02-3.07v-5.91l-3.32-4.44v7.51H379.71z"/>
				<path class="st2" d="M130.59,161.35h-3.3v14.85c0.2,2.21,1.19,3.47,2.16,4.15l1.55,0.75c0.15,0.04,0.25,0.06,0.25,0.06l0.2,0.16
					l0.19,0.1c-0.5-0.56-1.05-1.53-1.05-3.11V161.35z"/>
				<path class="st2" d="M421.94,139.63c0,6.32-3.23,11.81-8.76,15.61c8.08-3.15,12.06-9.21,12.06-15.61
					c0-9.79-5.58-15.17-12.58-18.1C418.7,125.74,421.94,131.86,421.94,139.63z"/>
				<path class="st2" d="M468.58,118.9L468.58,118.9c-2.86,0-4.39,2.26-4.39,5.86v51.03c0,2.87,0.78,5.62,4.37,5.62l0,0
					c-0.51-0.37-1.07-1.53-1.07-3.11v-56.26C467.5,120.43,468.07,119.45,468.58,118.9z"/>
				<path class="st2" d="M127.29,124.33v13.91h3.3v-16.21c0-1.31,0.38-2.18,0.79-2.77l-0.14,0.11
					C131.24,119.37,127.68,120,127.29,124.33z"/>
				<path class="st2" d="M383.01,143.5v-7.25c-0.56-0.04-1.15-0.07-1.83-0.07l-1.49,0v7.41h0.78
					C381.44,143.59,382.27,143.56,383.01,143.5z"/>
				<path class="st2" d="M323.59,122.01L323.59,122.01c0,0.01,0,0.02,0.01,0.02L323.59,122.01z"/>
				<path class="st2" d="M323.51,118.34c0.01-0.01,0.01-0.01,0.02-0.02c0,0-3.45,1.71-2.43,4.81l25.8,54.1
					c0.69,1.41,1.9,1.99,1.94,2.01l-0.05-5.06c0,0-23.09-48.7-24.15-50.87C323.19,120.32,323.44,118.4,323.51,118.34z"/>
				<path class="st2" d="M423.35,173.01c-4.25-5.49-10.87-13.91-12.71-16.24c-0.61,0.31-1.61,0.86-2.25,1.12
					c2.84,3.63,7.39,9.46,10.62,13.59c6.75,8.65,10.11,8.2,10.11,8.2C427.4,178.27,425.64,175.98,423.35,173.01z"/>
				<path class="st2" d="M217.9,122.04c0-1.61,0.57-2.58,1.07-3.13l-0.71,0.34c-1.2,0.66-3.5,2.3-3.67,5.1v29.75
					c0,5.95,0.85,8.82,5.6,9.4c-2.28-2.76-2.29-6.61-2.29-9.4V122.04z"/>
				<path class="st2" d="M262.11,124.87v31.61c0,10.27-4.04,18.06-11.66,23.14c8.55-3.61,14.97-10.5,14.97-23.14v-34.44
					c0-1.61,0.58-2.58,1.08-3.13l-0.71,0.34C264.6,119.91,262.33,121.63,262.11,124.87z"/>
				<path class="st2" d="M292.11,177.19l-0.95,2.29l0,0l-0.01,0.02l0.03,0.01c-1.02,2.95,3.62,2.55,3.62,2.55s-1.41-0.89-0.03-3.76
					l-0.34,0.71l0.77-1.81H292.11z"/>
			</g>
		</g>
	</g>
	<g>
		<path class="st2" d="M259.79,227.84c-0.15,0-0.36,0.12-0.65,0.35c-0.29,0.24-0.62,0.49-1,0.77c-0.38,0.28-0.79,0.53-1.22,0.77
			c-0.44,0.24-0.87,0.35-1.32,0.35c-0.38,0-0.77-0.09-1.17-0.27c-0.4-0.18-0.58-0.48-0.54-0.89c0.01-0.14,0.14-0.51,0.39-1.12
			c0.25-0.61,0.57-1.35,0.98-2.22c0.4-0.87,0.85-1.82,1.32-2.83c0.48-1.01,0.95-2,1.42-2.97c0.47-0.97,0.91-1.84,1.3-2.62
			c0.4-0.78,0.71-1.34,0.95-1.71h-2.92c-0.19,0.42-0.43,0.86-0.74,1.33c-0.11-0.44-0.33-0.82-0.67-1.12
			c-0.34-0.3-0.76-0.46-1.26-0.46c-0.59,0-1.34,0.19-2.24,0.56c-0.9,0.37-1.86,0.88-2.86,1.52c-1,0.64-2.02,1.39-3.06,2.25
			c-1.04,0.86-1.98,1.78-2.82,2.76c-0.84,0.98-1.55,2-2.12,3.05c-0.57,1.05-0.9,2.09-0.99,3.12c-0.04,0.39-0.03,0.78,0.02,1.18
			c0.05,0.4,0.16,0.76,0.34,1.08c0.18,0.32,0.43,0.58,0.75,0.79c0.32,0.21,0.73,0.31,1.23,0.31c0.82,0,1.71-0.22,2.65-0.66
			c0.94-0.44,1.86-1,2.74-1.66c0.89-0.67,1.71-1.38,2.48-2.14c0.76-0.76,1.38-1.45,1.85-2.06l0.08,0.08
			c-0.14,0.25-0.35,0.59-0.63,1.02c-0.28,0.43-0.55,0.87-0.83,1.31c-0.28,0.44-0.52,0.88-0.74,1.31c-0.22,0.43-0.34,0.77-0.36,1.02
			c-0.06,0.61,0.2,1.06,0.76,1.35c0.56,0.29,1.11,0.44,1.64,0.44c0.91,0,1.82-0.18,2.71-0.54c0.89-0.36,1.69-0.77,2.39-1.23
			c0.7-0.46,1.28-0.89,1.71-1.31c0.44-0.42,0.66-0.66,0.66-0.75C260.05,227.89,259.96,227.84,259.79,227.84z M253.33,223.18
			c-0.3,0.5-0.5,0.86-0.61,1.08c-0.28,0.5-0.67,1.07-1.18,1.72c-0.5,0.65-1.07,1.26-1.69,1.83c-0.63,0.57-1.28,1.05-1.97,1.43
			c-0.68,0.39-1.37,0.58-2.05,0.58c-0.53,0-0.97-0.16-1.33-0.48c-0.36-0.32-0.51-0.74-0.46-1.27c0.08-0.83,0.3-1.68,0.68-2.56
			c0.37-0.87,0.83-1.74,1.37-2.6c0.54-0.86,1.11-1.68,1.73-2.45c0.62-0.77,1.21-1.5,1.77-2.16c0.26-0.28,0.47-0.51,0.64-0.71
			c0.17-0.19,0.34-0.35,0.53-0.48c0.19-0.12,0.41-0.21,0.67-0.27c0.25-0.06,0.58-0.08,0.96-0.08c0.29,0,0.62,0.06,0.98,0.19
			c0.36,0.13,0.69,0.3,0.99,0.52c0.3,0.22,0.55,0.48,0.75,0.77c0.19,0.29,0.28,0.6,0.25,0.94c-0.01,0.14-0.14,0.44-0.37,0.92
			c-0.24,0.47-0.5,0.98-0.78,1.52C253.92,222.16,253.63,222.68,253.33,223.18z"/>
		<path class="st2" d="M291.58,210.72c0.11-1.19,0.06-2.33-0.15-3.41c-0.21-1.08-0.6-2.03-1.15-2.87c-0.56-0.83-1.32-1.49-2.27-1.97
			c-0.96-0.49-2.13-0.73-3.52-0.73c-1.27,0-2.42,0.22-3.45,0.67c-1.03,0.44-1.91,0.94-2.64,1.5c-0.73,0.55-1.29,1.08-1.69,1.58
			c-0.4,0.5-0.6,0.8-0.61,0.91c-0.02,0.17,0.07,0.25,0.24,0.25c0.15,0,0.4-0.23,0.75-0.69c0.35-0.46,0.83-0.96,1.44-1.5
			c0.61-0.54,1.37-1.03,2.28-1.48c0.91-0.44,1.99-0.66,3.23-0.66c1.03,0,1.86,0.19,2.49,0.58c0.63,0.39,1.11,0.89,1.45,1.52
			c0.34,0.62,0.56,1.33,0.65,2.12c0.09,0.79,0.1,1.59,0.02,2.39c-0.06,0.69-0.27,1.71-0.61,3.06c-0.35,1.34-0.79,2.81-1.33,4.4
			c-0.55,1.59-1.19,3.23-1.93,4.9c-0.75,1.68-1.55,3.19-2.41,4.55c-0.86,1.36-1.77,2.47-2.72,3.35c-0.95,0.87-1.93,1.31-2.93,1.31
			c-0.44,0-0.8-0.1-1.06-0.31c-0.26-0.21-0.45-0.46-0.57-0.77c-0.12-0.3-0.18-0.64-0.2-1.02c-0.01-0.37,0-0.73,0.03-1.06
			c0.11-1.13,0.47-2.31,1.08-3.53c0.61-1.22,1.38-2.37,2.29-3.45c0.91-1.08,1.94-2.04,3.07-2.87c1.14-0.83,2.3-1.44,3.49-1.83
			c0.52-0.17,0.89-0.28,1.12-0.35c0.23-0.07,0.35-0.16,0.36-0.27c0.01-0.17-0.1-0.25-0.33-0.25c-0.44,0-1.09,0.13-1.94,0.39
			c-0.85,0.26-1.8,0.64-2.85,1.14c-1.05,0.5-2.11,1.11-3.2,1.85c-1.08,0.73-2.1,1.58-3.04,2.53c-0.94,0.96-1.73,2.02-2.37,3.2
			c-0.64,1.18-1.02,2.46-1.15,3.84c-0.11,1.14,0.1,2.1,0.62,2.89c0.52,0.79,1.43,1.18,2.72,1.18c1.03,0,2.13-0.29,3.31-0.87
			c1.17-0.58,2.36-1.38,3.56-2.39c1.2-1.01,2.36-2.2,3.49-3.57c1.13-1.37,2.14-2.84,3.04-4.4c0.9-1.56,1.65-3.19,2.26-4.88
			C291.04,214.01,291.43,212.35,291.58,210.72z"/>
		<path class="st2" d="M302.05,215.2c-0.8,0-1.66,0.19-2.6,0.58c-0.94,0.39-1.88,0.92-2.85,1.6c-0.96,0.68-1.9,1.46-2.8,2.33
			c-0.91,0.87-1.72,1.79-2.44,2.74c-0.72,0.96-1.32,1.93-1.8,2.93c-0.48,1-0.75,1.94-0.84,2.83c-0.11,1.16,0.17,2.06,0.84,2.68
			c0.67,0.62,1.62,0.93,2.85,0.93c1.12,0,2.24-0.23,3.36-0.69c1.12-0.46,2.13-0.98,3.04-1.56c0.91-0.58,1.65-1.14,2.24-1.68
			c0.58-0.54,0.87-0.88,0.89-1.02c0.01-0.11-0.08-0.17-0.29-0.17c-0.06,0-0.14,0.06-0.24,0.17c-0.1,0.11-0.23,0.22-0.38,0.33
			c-0.38,0.28-0.78,0.58-1.19,0.91c-0.41,0.33-0.85,0.64-1.32,0.91c-0.47,0.28-0.97,0.51-1.5,0.69c-0.53,0.18-1.12,0.27-1.77,0.27
			c-1.12,0-1.9-0.3-2.33-0.89c-0.43-0.6-0.61-1.38-0.52-2.35c0.04-0.44,0.17-0.98,0.39-1.62c0.22-0.64,0.47-1.16,0.74-1.58
			c0.75-0.17,1.71-0.42,2.86-0.75c1.15-0.33,2.27-0.76,3.37-1.29c1.09-0.53,2.05-1.15,2.87-1.87c0.82-0.72,1.27-1.54,1.35-2.45
			C304.11,215.87,303.46,215.2,302.05,215.2z M299.82,219.53c-0.51,0.55-1.11,1.05-1.8,1.5c-0.69,0.44-1.41,0.82-2.16,1.12
			c-0.75,0.31-1.4,0.5-1.94,0.58c0.19-0.42,0.46-0.95,0.81-1.62c0.36-0.66,0.79-1.31,1.29-1.93c0.5-0.62,1.03-1.16,1.61-1.62
			c0.57-0.46,1.14-0.68,1.7-0.68c0.41,0,0.74,0.06,1,0.19c0.25,0.12,0.36,0.38,0.33,0.77C300.6,218.4,300.32,218.97,299.82,219.53z"
			/>
		<path class="st2" d="M342.98,210.78c0.11-1.21,0.06-2.31-0.15-3.32c-0.22-1.01-0.6-1.88-1.14-2.63c-0.54-0.75-1.28-1.33-2.2-1.75
			c-0.92-0.41-2.06-0.62-3.41-0.62c-1.71,0-3.41,0.32-5.09,0.97c-1.68,0.65-3.28,1.52-4.81,2.61c-1.52,1.09-2.95,2.37-4.27,3.82
			c-1.33,1.45-2.49,2.96-3.49,4.55c-1,1.58-1.82,3.19-2.44,4.83c-0.62,1.64-1,3.19-1.14,4.66c-0.11,1.2-0.06,2.31,0.15,3.32
			c0.21,1.01,0.59,1.88,1.14,2.63c0.54,0.75,1.28,1.33,2.22,1.75c0.94,0.41,2.07,0.62,3.38,0.62c1.71,0,3.41-0.32,5.09-0.97
			c1.68-0.65,3.28-1.52,4.81-2.61c1.53-1.09,2.95-2.36,4.27-3.81c1.33-1.45,2.49-2.97,3.49-4.55c1-1.58,1.82-3.19,2.44-4.83
			C342.47,213.8,342.85,212.24,342.98,210.78z M338.06,213.17c-0.39,1.39-0.91,2.87-1.58,4.44c-0.67,1.57-1.44,3.13-2.34,4.7
			c-0.89,1.57-1.88,2.98-2.96,4.24c-1.08,1.26-2.25,2.29-3.52,3.08c-1.27,0.79-2.59,1.19-3.96,1.19c-1.01,0-1.84-0.17-2.48-0.5
			c-0.64-0.33-1.13-0.77-1.46-1.34c-0.33-0.56-0.55-1.21-0.65-1.96c-0.1-0.75-0.11-1.54-0.03-2.37c0.08-0.89,0.32-2.03,0.71-3.43
			c0.39-1.39,0.91-2.87,1.56-4.44c0.65-1.57,1.42-3.13,2.31-4.7c0.89-1.57,1.88-2.98,2.96-4.25c1.08-1.26,2.25-2.29,3.5-3.08
			c1.25-0.79,2.55-1.18,3.89-1.18c1.04,0,1.89,0.17,2.55,0.5c0.66,0.33,1.16,0.77,1.51,1.34c0.34,0.56,0.57,1.21,0.67,1.96
			c0.1,0.75,0.11,1.54,0.03,2.37C338.68,210.64,338.44,211.78,338.06,213.17z"/>
		<path class="st2" d="M356.53,215.89c-0.47-0.46-1.12-0.69-1.95-0.69c-0.83,0-1.62,0.24-2.37,0.71c-0.75,0.47-1.46,1.05-2.13,1.75
			c-0.67,0.69-1.27,1.41-1.82,2.16c-0.54,0.75-1.01,1.41-1.42,1.99l-0.08-0.08l2.99-6.02h-3.27l-6.88,15.62h3.01
			c0.19-0.47,0.47-1.14,0.85-2.02c0.37-0.87,0.83-1.84,1.35-2.89c0.52-1.05,1.09-2.13,1.69-3.22c0.6-1.09,1.23-2.09,1.89-2.97
			c0.66-0.89,1.32-1.61,1.99-2.18c0.67-0.57,1.32-0.85,1.94-0.85c0.26,0,0.54,0.02,0.83,0.06c0.29,0.04,0.53,0.16,0.72,0.35
			c-0.17,0.22-0.31,0.44-0.44,0.67c-0.12,0.22-0.2,0.46-0.22,0.71c-0.04,0.47,0.08,0.85,0.36,1.12c0.28,0.28,0.67,0.41,1.18,0.41
			c0.38,0,0.72-0.09,1-0.27c0.28-0.18,0.52-0.4,0.72-0.66c0.2-0.26,0.36-0.56,0.46-0.89c0.1-0.33,0.17-0.64,0.19-0.91
			C357.21,216.98,357,216.35,356.53,215.89z"/>
		<path class="st2" d="M364.13,229.73c0.76-0.54,1.39-1.06,1.89-1.56c0.51-0.5,0.76-0.82,0.77-0.95c0.02-0.17-0.05-0.25-0.2-0.25
			c-0.12,0-0.35,0.15-0.68,0.46c-0.34,0.31-0.74,0.65-1.2,1.02c-0.46,0.37-0.97,0.71-1.51,1.02c-0.54,0.3-1.11,0.46-1.7,0.46
			c-0.41,0-0.81-0.12-1.18-0.37c-0.37-0.25-0.55-0.58-0.5-1c0.06-0.64,0.36-1.54,0.89-2.72c0.54-1.18,1.14-2.42,1.83-3.74
			c0.68-1.32,3.51-6.88,3.51-6.88h-3.41c-0.93,2.05-1.79,3.91-2.59,5.57c-0.8,1.66-1.5,3.1-2.08,4.32c-0.58,1.22-1.05,2.2-1.4,2.93
			c-0.35,0.73-0.53,1.2-0.55,1.39c-0.04,0.39,0.04,0.74,0.22,1.04c0.18,0.3,0.43,0.56,0.75,0.77c0.32,0.21,0.67,0.36,1.04,0.46
			c0.38,0.1,0.74,0.14,1.09,0.14c0.8,0,1.64-0.21,2.54-0.64C362.54,230.75,363.37,230.27,364.13,229.73z"/>
		<path class="st2" d="M368.4,207.81c0.59,0,1.11-0.23,1.57-0.69c0.45-0.46,0.71-0.99,0.77-1.6c0.06-0.64-0.08-1.09-0.41-1.37
			c-0.33-0.28-0.82-0.41-1.47-0.41c-0.59,0-1.11,0.23-1.57,0.69c-0.46,0.46-0.71,0.99-0.77,1.6c-0.06,0.64,0.08,1.09,0.4,1.37
			C367.27,207.67,367.75,207.81,368.4,207.81z"/>
		<path class="st2" d="M398.6,215.2c-0.8,0-1.66,0.19-2.6,0.58c-0.94,0.39-1.88,0.92-2.85,1.6c-0.96,0.68-1.89,1.46-2.8,2.33
			c-0.91,0.87-1.72,1.79-2.44,2.74c-0.72,0.96-1.32,1.93-1.79,2.93c-0.48,1-0.75,1.94-0.84,2.83c-0.11,1.16,0.17,2.06,0.84,2.68
			c0.67,0.62,1.62,0.93,2.85,0.93c1.12,0,2.24-0.23,3.36-0.69c1.12-0.46,2.13-0.98,3.04-1.56c0.91-0.58,1.65-1.14,2.24-1.68
			c0.58-0.54,0.87-0.88,0.89-1.02c0.01-0.11-0.09-0.17-0.29-0.17c-0.06,0-0.14,0.06-0.24,0.17c-0.1,0.11-1.26,1.28-2.9,2.16
			c-0.48,0.26-0.97,0.51-1.5,0.69c-0.53,0.18-1.12,0.27-1.77,0.27c-1.12,0-1.9-0.3-2.33-0.89c-0.43-0.6-0.6-1.38-0.51-2.35
			c0.04-0.44,0.17-0.98,0.39-1.62c0.22-0.64,0.47-1.16,0.74-1.58c0.75-0.17,1.7-0.42,2.85-0.75c1.15-0.33,2.27-0.76,3.37-1.29
			c1.09-0.53,2.05-1.15,2.87-1.87c0.82-0.72,1.27-1.54,1.36-2.45C400.66,215.87,400.02,215.2,398.6,215.2z M396.37,219.53
			c-0.51,0.55-1.11,1.05-1.8,1.5c-0.69,0.44-1.41,0.82-2.16,1.12c-0.75,0.31-1.4,0.5-1.93,0.58c0.19-0.42,0.46-0.95,0.81-1.62
			c0.36-0.66,0.78-1.31,1.28-1.93c0.5-0.62,1.04-1.16,1.61-1.62c0.57-0.46,1.14-0.68,1.7-0.68c0.41,0,0.74,0.06,1,0.19
			c0.25,0.12,0.36,0.38,0.33,0.77C397.16,218.4,396.88,218.97,396.37,219.53z"/>
		<path class="st2" d="M419.85,228.52c-0.05-0.04-0.11-0.06-0.17-0.06c-0.12,0-0.29,0.08-0.51,0.23c-0.22,0.15-0.49,0.32-0.8,0.5
			c-0.31,0.18-0.65,0.35-1.02,0.5c-0.37,0.15-0.76,0.23-1.17,0.23c-0.38,0-0.71-0.11-0.99-0.33c-0.28-0.22-0.39-0.53-0.36-0.91
			c0.03-0.28,0.17-0.7,0.43-1.27c0.26-0.57,0.58-1.2,0.97-1.91c0.39-0.71,0.8-1.46,1.25-2.24c0.44-0.79,0.86-1.54,1.25-2.26
			c0.39-0.72,0.72-1.39,0.98-2c0.26-0.61,0.41-1.08,0.44-1.41c0.04-0.41-0.03-0.77-0.19-1.08c-0.17-0.31-0.39-0.55-0.68-0.73
			c-0.29-0.18-0.63-0.32-1-0.42c-0.38-0.1-0.75-0.15-1.14-0.15c-1,0-2.02,0.3-3.05,0.91c-1.03,0.61-2,1.35-2.93,2.22
			c-0.92,0.87-1.76,1.79-2.53,2.76c-0.77,0.97-1.39,1.83-1.87,2.58l-0.08-0.08l3.83-7.89h-3.36c-1.19,2.63-2.36,5.23-3.53,7.81
			c-1.17,2.58-2.3,5.18-3.4,7.81h2.96c0.34-0.8,0.76-1.71,1.27-2.72c0.51-1.01,1.08-2.04,1.72-3.1c0.64-1.05,1.33-2.08,2.08-3.1
			c0.74-1.01,1.49-1.92,2.24-2.72c0.75-0.8,1.5-1.45,2.26-1.93c0.75-0.48,1.47-0.73,2.15-0.73c1.06,0,1.55,0.47,1.46,1.41
			c-0.03,0.33-0.18,0.8-0.44,1.39c-0.26,0.6-0.59,1.25-0.97,1.95c-0.39,0.71-0.81,1.45-1.25,2.22c-0.44,0.78-0.86,1.52-1.24,2.22
			c-0.39,0.71-0.72,1.35-0.98,1.93c-0.26,0.58-0.4,1.04-0.44,1.37c-0.06,0.72,0.19,1.23,0.77,1.52c0.58,0.29,1.2,0.44,1.89,0.44
			c0.62,0,1.29-0.13,2.03-0.38c0.73-0.25,1.41-0.54,2.03-0.87c0.62-0.33,1.13-0.65,1.55-0.96c0.41-0.31,0.62-0.5,0.63-0.58
			C419.93,228.62,419.91,228.56,419.85,228.52z"/>
		<path class="st2" d="M193.54,227.58c-0.03,0-0.2,0.13-0.5,0.4c-0.31,0.26-0.68,0.56-1.12,0.89c-0.44,0.33-0.93,0.63-1.45,0.89
			c-0.53,0.26-1.01,0.4-1.45,0.4c-0.44,0-0.81-0.07-1.11-0.21c-0.3-0.14-0.42-0.44-0.38-0.91c0.03-0.28,0.17-0.75,0.44-1.43
			c0.27-0.68,0.61-1.46,1.01-2.33c0.4-0.87,0.85-1.8,1.34-2.78c0.49-0.98,0.96-1.92,1.43-2.81c0.47-0.89,0.88-1.69,1.24-2.41
			c0.36-0.72,0.63-1.24,0.81-1.58h-3.27c-0.83,1.61-1.63,3.2-2.41,4.78c-0.78,1.58-1.72,3.1-2.83,4.57
			c-0.44,0.58-0.93,1.16-1.49,1.72c-0.55,0.57-1.11,1.08-1.69,1.54c-0.57,0.46-1.14,0.82-1.69,1.1c-0.55,0.28-1.06,0.42-1.5,0.42
			c-0.53,0-0.92-0.11-1.19-0.33c-0.26-0.22-0.36-0.61-0.31-1.17c0.04-0.47,0.32-1.26,0.82-2.37c0.5-1.11,1.08-2.31,1.75-3.59
			c0.66-1.29,1.32-2.55,1.98-3.78c0.66-1.23,1.15-2.19,1.48-2.89h-3.27c-0.52,1.14-1.14,2.4-1.87,3.78
			c-0.73,1.39-1.44,2.74-2.12,4.07c-0.68,1.33-1.27,2.55-1.77,3.66c-0.5,1.11-0.78,1.95-0.83,2.53c-0.07,0.72,0.13,1.25,0.58,1.58
			c0.46,0.33,1.05,0.5,1.79,0.5c0.89,0,1.86-0.28,2.93-0.83c1.07-0.56,2.11-1.23,3.13-2.04c1.02-0.8,1.95-1.66,2.78-2.58
			c0.84-0.91,1.45-1.73,1.84-2.45l0.08,0.08c-0.11,0.19-0.31,0.59-0.62,1.19c-0.31,0.59-0.62,1.23-0.95,1.89
			c-0.33,0.66-0.62,1.28-0.88,1.85c-0.26,0.57-0.4,0.93-0.41,1.1c-0.03,0.28,0.04,0.53,0.2,0.75c0.16,0.22,0.35,0.41,0.59,0.56
			c0.23,0.15,0.5,0.27,0.79,0.35c0.29,0.08,0.56,0.12,0.83,0.12c0.98,0,1.91-0.2,2.82-0.6c0.91-0.4,1.7-0.85,2.38-1.35
			c0.68-0.5,1.23-0.96,1.65-1.39c0.42-0.43,0.64-0.66,0.64-0.69C193.76,227.66,193.69,227.58,193.54,227.58z"/>
		<path class="st2" d="M211.09,219.59c0.2-0.26,0.36-0.56,0.46-0.89c0.1-0.33,0.17-0.64,0.19-0.91c0.08-0.8-0.13-1.43-0.6-1.89
			c-0.47-0.46-1.12-0.69-1.95-0.69c-0.83,0-1.62,0.24-2.36,0.71c-0.75,0.47-1.46,1.05-2.13,1.75c-0.67,0.69-1.27,1.41-1.81,2.16
			c-0.54,0.75-1.02,1.41-1.42,1.99l-0.08-0.08l2.99-6.02h-3.27l-6.88,15.62h3.01c0.19-0.47,0.47-1.14,0.85-2.02
			c0.38-0.87,0.83-1.84,1.35-2.89c0.52-1.05,1.09-2.13,1.69-3.22c0.6-1.09,1.23-2.09,1.89-2.97c0.66-0.89,1.32-1.61,1.99-2.18
			c0.67-0.57,1.32-0.85,1.93-0.85c0.27,0,0.55,0.02,0.84,0.06c0.29,0.04,0.53,0.16,0.72,0.35c-0.17,0.22-0.31,0.44-0.44,0.67
			c-0.12,0.22-0.2,0.46-0.22,0.71c-0.04,0.47,0.08,0.85,0.36,1.12c0.28,0.28,0.68,0.41,1.18,0.41c0.38,0,0.72-0.09,1-0.27
			S210.89,219.85,211.09,219.59z"/>
		<path class="st2" d="M214.39,223.56c0.75-0.17,1.7-0.42,2.86-0.75c1.15-0.33,2.28-0.76,3.37-1.29c1.1-0.53,2.05-1.15,2.87-1.87
			c0.82-0.72,1.27-1.54,1.36-2.45c0.12-1.33-0.53-1.99-1.94-1.99c-0.79,0-1.66,0.19-2.6,0.58c-0.94,0.39-1.89,0.92-2.85,1.6
			c-0.96,0.68-1.9,1.46-2.8,2.33c-0.91,0.87-1.72,1.79-2.44,2.74c-0.72,0.96-1.32,1.93-1.8,2.93c-0.47,1-0.75,1.94-0.84,2.83
			c-0.11,1.16,0.17,2.06,0.84,2.68c0.66,0.62,1.62,0.93,2.86,0.93c1.12,0,2.24-0.23,3.36-0.69c1.12-0.46,2.13-0.98,3.04-1.56
			c0.91-0.58,1.66-1.14,2.23-1.68c0.58-0.54,0.88-0.88,0.89-1.02c0.01-0.11-0.09-0.17-0.29-0.17c-0.06,0-0.14,0.06-0.24,0.17
			c-0.1,0.11-0.23,0.22-0.39,0.33c-0.38,0.28-0.77,0.58-1.19,0.91c-0.41,0.33-0.85,0.64-1.32,0.91c-0.47,0.28-0.97,0.51-1.5,0.69
			c-0.53,0.18-1.12,0.27-1.77,0.27c-1.12,0-1.9-0.3-2.33-0.89c-0.43-0.6-0.61-1.38-0.52-2.35c0.04-0.44,0.17-0.98,0.39-1.62
			C213.87,224.5,214.12,223.97,214.39,223.56z M215.59,221.1c0.36-0.66,0.78-1.31,1.28-1.93c0.5-0.62,1.04-1.16,1.61-1.62
			c0.57-0.46,1.14-0.68,1.7-0.68c0.41,0,0.75,0.06,1,0.19c0.25,0.12,0.37,0.38,0.33,0.77c-0.05,0.58-0.33,1.15-0.84,1.7
			c-0.51,0.55-1.11,1.05-1.8,1.5c-0.69,0.44-1.41,0.82-2.16,1.12c-0.75,0.31-1.4,0.5-1.94,0.58
			C214.97,222.31,215.24,221.77,215.59,221.1z"/>
		<path class="st2" d="M244.69,235.03c0,0-2.38,2.73-8.31-2.15c-5.26-4.32-9.2-4.04-9.2-4.04l8.76-6.85
			c1.74-1.48,3.6-2.81,5.56-3.97c0.1-0.06,0.27-0.17,0.54-0.33c0.27-0.17,0.54-0.35,0.82-0.54c0.28-0.19,0.54-0.4,0.76-0.6
			c0.22-0.21,0.35-0.39,0.36-0.56c0.03-0.33-0.04-0.55-0.21-0.64c-0.17-0.1-0.33-0.15-0.47-0.15c-0.21,0-0.42,0.09-0.64,0.27
			c-0.22,0.18-0.46,0.37-0.72,0.58c-0.25,0.21-0.52,0.4-0.8,0.58c-0.28,0.18-0.56,0.27-0.82,0.27c-0.35,0-0.71-0.06-1.07-0.19
			c-0.36-0.13-0.74-0.27-1.13-0.44c-0.4-0.14-0.83-0.27-1.29-0.4c-0.46-0.12-0.97-0.19-1.53-0.19c-0.77,0-1.63,0.29-2.6,0.87
			c-0.97,0.58-1.89,1.24-2.75,1.97c-0.87,0.73-1.6,1.42-2.2,2.06c-0.61,0.64-0.91,1.01-0.92,1.12c0,0.06,0,0.11,0.01,0.17
			c0.01,0.06,0.06,0.08,0.15,0.08c0.09,0,0.3-0.19,0.63-0.58c0.33-0.39,0.76-0.82,1.29-1.31c0.53-0.48,1.16-0.92,1.89-1.31
			c0.73-0.39,1.55-0.58,2.47-0.58c0.41,0,0.81,0.03,1.19,0.08c0.38,0.06,0.77,0.11,1.18,0.17c0.38,0.08,0.75,0.15,1.11,0.21
			c0.36,0.05,0.72,0.08,1.07,0.08c0.5,0,0.95-0.04,1.34-0.12l0.08,0.08c-0.13,0.06-0.59,0.42-1.41,1.1
			c-0.81,0.68-1.82,1.5-3.01,2.45c-1.19,0.96-2.5,1.98-3.93,3.06c-1.43,1.08-2.81,2.04-4.16,2.87c-0.25,0.17-0.57,0.36-0.96,0.58
			c-0.39,0.22-0.77,0.45-1.15,0.69c-0.38,0.24-0.71,0.47-1,0.71c-0.29,0.24-0.44,0.44-0.45,0.6c-0.02,0.25,0.17,0.79,0.48,0.56
			c4.18-3.09,4.88,1.18,10.93,3.95c6.05,2.76,10.33,0.95,10.49,0.16C245.2,234.62,244.69,235.03,244.69,235.03z"/>
		<path class="st2" d="M176.42,214.62c1.13-1.29,2.26-3.37,1.94-5.67c-0.16-1.15-1.12-4.61-6.93-5.9c-0.94-0.21-3.58-0.71-7.36-0.41
			c-7.77,0.64-14.44,4.53-14.92,8.51c-0.24,1.99,1.13,3.65,3.53,4.71c0,0-0.56-0.74-0.14-2.67c1-4.56,6.42-8.31,13.14-9.18
			c1.12-0.14,2.19-0.17,3.2-0.13l-0.01,0.02c0,0,5.78,0.2,5.41,5.55c-0.11,1.58-0.6,2.95-1.36,4.1c-0.76,1.15-1.74,2.1-2.92,2.84
			c-1.19,0.75-2.52,1.31-4.01,1.68c-1.49,0.38-3.04,0.57-4.67,0.6c1.11-2.41,1.74-3.83,2.78-6.2c0.87-1.97,1.77-3.94,2.69-5.91
			l-0.09-0.2c0,0-1.63,0.98-4.95,2.24c-0.05,0.12-0.09,0.23-0.14,0.37c-0.42,1.08-0.95,2.36-1.59,3.86c-0.64,1.49-0.9,2.11-1.67,3.8
			c-0.77,1.7-1.51,3.31-2.22,4.85c-0.71,1.54-1.33,2.88-1.88,4.03c-0.55,1.15-0.93,1.91-1.15,2.28c-0.22,0.37-0.42,0.71-0.62,1.01
			c-0.19,0.3-0.48,0.58-0.86,0.84c-0.38,0.26-0.87,0.49-1.49,0.71c-0.62,0.22-1.45,0.4-2.51,0.54l-0.06,0.6
			c1.08-0.06,2.17-0.1,3.27-0.13c1.1-0.03,2.21-0.04,3.31-0.04c0.8,0,1.41,0,2.24,0c0.83,0,1.63,0.01,2.41,0.02
			c0.78,0.01,1.47,0.03,2.09,0.06c0.61,0.03,1.04,0.06,1.28,0.09l0.05-0.6c-0.26-0.03-0.71-0.09-1.33-0.17
			c-0.62-0.08-1.25-0.21-1.88-0.39c-2.1-0.6-1.95-1.28-1.91-1.68c0.02-0.26,0.22-0.81,0.59-1.66c0.37-0.85,0.78-1.78,1.22-2.8
			c0.45-1.02,0.88-1.99,1.3-2.91c0.42-0.92,0.7-1.56,0.82-1.94c1.87,0,3.79-0.11,5.77-0.34c1.98-0.23,3.8-0.7,5.45-1.4
			C173.9,216.91,175.29,215.91,176.42,214.62z"/>
		<path class="st2" d="M383.36,215.87c-0.37-0.11-0.72-0.25-1.04-0.42c-0.33-0.16-0.72-0.25-1.19-0.25c-0.8,0-1.69,0.19-2.68,0.58
			c-1,0.39-2,0.92-3,1.6c-1,0.68-1.99,1.47-2.96,2.37c-0.97,0.9-1.84,1.85-2.61,2.85c-0.77,1-1.41,2.02-1.92,3.07
			c-0.51,1.05-0.81,2.08-0.9,3.08c-0.08,0.89,0.09,1.62,0.5,2.2c0.42,0.58,1.13,0.87,2.13,0.87c0.8,0,1.63-0.19,2.49-0.58
			c0.86-0.39,1.69-0.88,2.5-1.48c0.81-0.59,1.55-1.25,2.22-1.95c0.67-0.71,1.18-1.37,1.53-1.98l0.08,0.08
			c-0.35,0.58-0.75,1.35-1.2,2.29c-0.46,0.94-0.97,1.95-1.54,3.01c-0.57,1.07-1.18,2.13-1.84,3.2c-0.66,1.06-1.37,2.03-2.14,2.89
			c-0.76,0.84-1.56,1.53-2.4,2.06c-0.06,0.04-0.14,0.08-0.21,0.12c-0.11,0.06-0.22,0.12-0.32,0.17c-0.54,0.26-1.16,0.45-1.81,0.51
			c-1.92,0.19-3.41-0.66-3.31-1.91c0.09-1.15,1.36-1.98,3.1-2.28c0.71-0.23,0.13-0.42-1.4-0.42c-2.61,0-4.84,1.23-4.98,2.74
			c-0.12,1.35,1.46,2.47,3.65,2.69c0.21,0.03,0.43,0.04,0.64,0.04c0.01,0,0.03,0,0.05,0c0.05,0,0.09,0.01,0.14,0.01
			c0.44,0,0.86-0.04,1.27-0.11c0.61-0.07,1.2-0.19,1.79-0.36c1.05-0.3,2.04-0.72,2.99-1.25c0.95-0.53,1.85-1.14,2.69-1.85
			c0.84-0.71,1.61-1.47,2.31-2.31c1.03-1.22,2.01-2.7,2.95-4.43c0.94-1.73,1.85-3.53,2.73-5.4c0.88-1.87,1.73-3.73,2.55-5.57
			c0.82-1.84,1.6-3.5,2.36-4.96L383.36,215.87z M381.15,219.79c-0.26,0.6-0.56,1.23-0.91,1.89c-0.34,0.67-0.67,1.3-0.99,1.91
			c-0.32,0.61-0.57,1.05-0.74,1.33c-0.28,0.47-0.64,1-1.08,1.58c-0.43,0.58-0.92,1.14-1.45,1.66c-0.54,0.53-1.11,0.96-1.74,1.31
			c-0.62,0.35-1.24,0.52-1.86,0.52c-0.77,0-1.27-0.21-1.52-0.62c-0.24-0.41-0.33-0.94-0.28-1.58c0.07-0.72,0.36-1.69,0.89-2.91
			c0.52-1.22,1.17-2.42,1.92-3.61c0.76-1.19,1.58-2.22,2.48-3.1c0.89-0.87,1.73-1.31,2.53-1.31c0.33,0,0.68,0.03,1.05,0.1
			c0.37,0.07,0.73,0.18,1.05,0.33c0.32,0.15,0.59,0.33,0.79,0.54c0.2,0.21,0.29,0.45,0.26,0.73
			C381.55,218.79,381.41,219.2,381.15,219.79z"/>
	</g>
</g>
</svg>
