<svg xmlns="http://www.w3.org/2000/svg" viewBox="0 0 61.47 84.7"><defs><style>.cls-1{fill:#004a92;}.cls-2{fill:#fff;}.cls-3{fill:#e70029;}</style></defs><title>pepsi</title><g id="Capa_2" data-name="Capa 2"><g id="Capa_2-2" data-name="Capa 2"><path class="cls-1" d="M53.55,67.56a1.21,1.21,0,1,0,1.21,1.21,1.21,1.21,0,0,0-1.21-1.21"/><path class="cls-2" d="M52.47,52.47A30.74,30.74,0,1,1,52.47,9a30.75,30.75,0,0,1,0,43.47"/><path class="cls-1" d="M55,15A20.12,20.12,0,0,1,47.56,37.3c-8.72,6.42-21.43,6.43-39,12A28.89,28.89,0,0,0,55,15"/><path class="cls-3" d="M48.06,7.62A28.89,28.89,0,0,0,7.48,47.88,60,60,0,0,0,48.06,7.62"/><path class="cls-2" d="M29.11,75.75v0c0-.1,0-.27-.05-.44a4.81,4.81,0,0,0-.2-.93,5.15,5.15,0,0,0-4.92-3.74,4.08,4.08,0,0,0-.69,0,5.24,5.24,0,0,0-4.49,6,5.14,5.14,0,0,0,5.17,4.56,5.34,5.34,0,0,0,.69,0,5.25,5.25,0,0,0,3.58-1.92.27.27,0,0,0,.07-.22.24.24,0,0,0-.12-.18c-.15-.11-.71-.38-1-.53l-.2-.1a.56.56,0,0,0-.22-.06.26.26,0,0,0-.21.12,3.39,3.39,0,0,1-2.58,1.19,3.5,3.5,0,0,1-3.25-2.24v0h0a4.1,4.1,0,0,1,1.72-.35l.36,0c.28,0,.57.06.86.1a13.54,13.54,0,0,0,1.78.14A10.16,10.16,0,0,0,26.65,77a6.68,6.68,0,0,0,2.26-.77c.23-.15.22-.27.2-.49m-1.82-.66a6.2,6.2,0,0,1-1.09.21,5.25,5.25,0,0,1-.73,0c-.47,0-1,0-1.48-.07h0c-.45,0-.89-.07-1.3-.07a7.44,7.44,0,0,0-.84,0,6.47,6.47,0,0,0-1.38.34v-.06a3.56,3.56,0,0,1,3.05-3.1,3.15,3.15,0,0,1,.44,0A3.66,3.66,0,0,1,27.32,75v0Z"/><path class="cls-2" d="M52.83,71h1.34a.24.24,0,0,1,.24.24v9.51a.25.25,0,0,1-.25.25H52.84a.25.25,0,0,1-.25-.25V71.22A.24.24,0,0,1,52.83,71Z"/><path class="cls-2" d="M53.5,67.58a1.21,1.21,0,1,0,1.21,1.21,1.21,1.21,0,0,0-1.21-1.21"/><path class="cls-2" d="M35.75,81.22H36a5,5,0,0,0,3.6-1.49,5.4,5.4,0,0,0-3.77-9.12,5.18,5.18,0,0,0-5,3.94A11.61,11.61,0,0,0,30.56,77v7.46a.25.25,0,0,0,.25.25h1.32a.25.25,0,0,0,.25-.25v-4.7l.07.07a5.3,5.3,0,0,0,3.3,1.4m.06-8.79A3.43,3.43,0,0,1,39.19,76a3.33,3.33,0,0,1-3.28,3.51,3.53,3.53,0,0,1-2.46-.95,3.41,3.41,0,0,1-1-2.5,3.5,3.5,0,0,1,3.38-3.61"/><path class="cls-2" d="M11.92,81.22h.26a5,5,0,0,0,3.6-1.49A5.4,5.4,0,0,0,12,70.62a5.18,5.18,0,0,0-5,3.94A11.77,11.77,0,0,0,6.74,77v7.46A.25.25,0,0,0,7,84.7H8.31a.25.25,0,0,0,.25-.25v-4.7l.07.07a5.3,5.3,0,0,0,3.3,1.4M12,72.43A3.43,3.43,0,0,1,15.36,76a3.33,3.33,0,0,1-3.28,3.51,3.51,3.51,0,0,1-2.45-.95,3.38,3.38,0,0,1-1-2.5A3.51,3.51,0,0,1,12,72.43"/><path class="cls-2" d="M42.37,79.56a5.75,5.75,0,0,0,4.05,1.66h0c2.83,0,4.09-1.57,4.09-3.09A3,3,0,0,0,48,75.32l-.61-.12c-.49-.09-1-.19-1.46-.32s-1.39-.44-1.39-1.23,1-1.35,1.88-1.35a3.23,3.23,0,0,1,2.22.77.42.42,0,0,0,.26.11.4.4,0,0,0,.24-.09A9.79,9.79,0,0,0,50,72.3a.23.23,0,0,0,.09-.21.4.4,0,0,0-.13-.25,5.4,5.4,0,0,0-3.62-1.22h0c-2.11,0-3.71,1.36-3.71,3.17,0,1.43,1.17,2.44,3.31,2.86l1.33.26c.88.16,1.37.62,1.35,1.28s-.79,1.29-2.07,1.29a4,4,0,0,1-2.74-1.11h0a.33.33,0,0,0-.21-.11.37.37,0,0,0-.2.08c-.08.07-1,.77-1.06.87a.21.21,0,0,0-.07.15.39.39,0,0,0,.11.21"/><path class="cls-2" d="M56.31,79a1.11,1.11,0,1,1-1.09,1.11A1.11,1.11,0,0,1,56.31,79Zm0,2a.91.91,0,0,0,0-1.82.91.91,0,0,0,0,1.82Zm.17-.75a.32.32,0,0,0,.24-.34.35.35,0,0,0-.35-.37h-.43v1.11h.21v-.38h.08l.27.38h.26Zm-.11-.49a.15.15,0,0,1,0,.29h-.21v-.29Z"/></g></g></svg>